<svg width="1200" height="630" viewBox="0 0 1200 630" xmlns="http://www.w3.org/2000/svg"><rect x="0" y="0" width="1200" height="630" fill="#fefbfb"/><defs><clipPath id="satori_bc-id-0"><path x="105" y="39" width="1056" height="504" d="M109,39 h1048 a4,4 0 0 1 4,4 v496 a4,4 0 0 1 -4,4 h-1048 a4,4 0 0 1 -4,-4 v-496 a4,4 0 0 1 4,-4"/></clipPath></defs><g opacity="0.9"><path x="105" y="39" width="1056" height="504" fill="#ecebeb" d="M109,39 h1048 a4,4 0 0 1 4,4 v496 a4,4 0 0 1 -4,4 h-1048 a4,4 0 0 1 -4,-4 v-496 a4,4 0 0 1 4,-4"/><path width="1056" height="504" clip-path="url(#satori_bc-id-0)" fill="none" stroke="#000" stroke-width="8" d="M106.172,40.172 A4,4 0 0 1 109,39 h1048 a4,4 0 0 1 4,4 v496 a4,4 0 0 1 -4,4 h-1048 a4,4 0 0 1 -4,-4 v-496 A4,4 0 0 1 106.172,40.172"/></g><defs><clipPath id="satori_bc-id-1"><path x="72" y="63" width="1056" height="504" d="M76,63 h1048 a4,4 0 0 1 4,4 v496 a4,4 0 0 1 -4,4 h-1048 a4,4 0 0 1 -4,-4 v-496 a4,4 0 0 1 4,-4"/></clipPath></defs><path x="72" y="63" width="1056" height="504" fill="#fefbfb" d="M76,63 h1048 a4,4 0 0 1 4,4 v496 a4,4 0 0 1 -4,4 h-1048 a4,4 0 0 1 -4,-4 v-496 a4,4 0 0 1 4,-4"/><path width="1056" height="504" clip-path="url(#satori_bc-id-1)" fill="none" stroke="#000" stroke-width="8" d="M73.172,64.172 A4,4 0 0 1 76,63 h1048 a4,4 0 0 1 4,4 v496 a4,4 0 0 1 -4,4 h-1048 a4,4 0 0 1 -4,-4 v-496 A4,4 0 0 1 73.172,64.172"/><clipPath id="satori_cp-id-1-0-0"><rect x="128" y="103" width="1340" height="187"/></clipPath><mask id="satori_om-id-1-0-0"><rect x="128" y="103" width="1340" height="187" fill="#fff"/></mask><path fill="black" d="M144.6 183.0L133.8 183.0L133.8 132.7L167.1 132.7L167.1 141.6L144.6 141.6L144.6 153.1L164.7 153.1L164.7 161.9L144.6 161.9L144.6 183.0ZM176.1 183.0L176.1 174.7L187.5 174.7L187.5 138.0L176.1 138.0L176.1 129.7L198.1 129.7L198.1 174.7L209.5 174.7L209.5 183.0L176.1 183.0ZM242.3 183.0L242.3 176.2L241.8 176.2Q240.6 179.4 238.0 181.6Q235.4 183.8 230.9 183.8L230.9 183.8Q228.2 183.8 226.0 182.9Q223.8 182.0 222.2 180.2Q220.6 178.4 219.7 175.8Q218.8 173.2 218.8 169.8L218.8 169.8L218.8 145.8L229.4 145.8L229.4 168.4Q229.4 175.6 235.7 175.6L235.7 175.6Q236.9 175.6 238.1 175.3Q239.3 175.0 240.2 174.3Q241.1 173.6 241.7 172.6Q242.3 171.6 242.3 170.2L242.3 170.2L242.3 145.8L252.9 145.8L252.9 183.0L242.3 183.0ZM295.8 183.0L282.1 183.0Q276.3 183.0 273.5 179.9Q270.7 176.9 270.7 172.2L270.7 172.2L270.7 154.1L260.6 154.1L260.6 145.8L267.2 145.8Q269.6 145.8 270.6 144.9Q271.6 143.9 271.6 141.4L271.6 141.4L271.6 132.7L281.4 132.7L281.4 145.8L295.8 145.8L295.8 154.1L281.4 154.1L281.4 174.7L295.8 174.7L295.8 183.0ZM339.0 183.0L325.3 183.0Q319.5 183.0 316.7 179.9Q313.9 176.9 313.9 172.2L313.9 172.2L313.9 154.1L303.8 154.1L303.8 145.8L310.4 145.8Q312.8 145.8 313.8 144.9Q314.8 143.9 314.8 141.4L314.8 141.4L314.8 132.7L324.6 132.7L324.6 145.8L339.0 145.8L339.0 154.1L324.6 154.1L324.6 174.7L339.0 174.7L339.0 183.0ZM366.6 183.8L366.6 183.8Q357.2 183.8 352.4 178.6Q347.6 173.4 347.6 164.5L347.6 164.5Q347.6 160.0 348.9 156.3Q350.1 152.7 352.5 150.2Q354.8 147.6 358.1 146.3Q361.5 144.9 365.7 144.9L365.7 144.9Q369.8 144.9 373.2 146.3Q376.5 147.6 378.8 150.0Q381.1 152.5 382.3 156.0Q383.6 159.5 383.6 163.8L383.6 163.8L383.6 167.0L358.2 167.0L358.2 167.6Q358.2 171.2 360.4 173.4Q362.6 175.6 367.0 175.6L367.0 175.6Q370.3 175.6 372.7 174.3Q375.0 173.1 376.8 171.0L376.8 171.0L382.5 177.3Q380.4 179.9 376.5 181.9Q372.6 183.8 366.6 183.8ZM365.7 152.6L365.7 152.6Q362.3 152.6 360.2 154.7Q358.2 156.8 358.2 160.4L358.2 160.4L358.2 161.0L373.2 161.0L373.2 160.4Q373.2 156.7 371.2 154.7Q369.2 152.6 365.7 152.6ZM392.5 183.0L392.5 174.7L401.1 174.7L401.1 154.1L392.5 154.1L392.5 145.8L411.8 145.8L411.8 156.3L412.3 156.3Q412.8 154.3 413.7 152.4Q414.6 150.5 416.0 149.0Q417.4 147.5 419.4 146.7Q421.4 145.8 424.1 145.8L424.1 145.8L427.7 145.8L427.7 155.6L419.7 155.6Q415.8 155.6 413.8 157.9Q411.8 160.3 411.8 163.7L411.8 163.7L411.8 174.7L424.0 174.7L424.0 183.0L392.5 183.0ZM471.3 183.0L432.7 183.0L432.7 126.8L471.3 126.8L471.3 183.0ZM439.9 134.0L439.9 175.8L464.1 175.8L464.1 134.0L439.9 134.0ZM514.5 183.0L475.9 183.0L475.9 126.8L514.5 126.8L514.5 183.0ZM483.1 134.0L483.1 175.8L507.3 175.8L507.3 134.0L483.1 134.0ZM557.7 183.0L519.1 183.0L519.1 126.8L557.7 126.8L557.7 183.0ZM526.3 134.0L526.3 175.8L550.5 175.8L550.5 134.0L526.3 134.0ZM600.9 183.0L562.3 183.0L562.3 126.8L600.9 126.8L600.9 183.0ZM569.5 134.0L569.5 175.8L593.7 175.8L593.7 134.0L569.5 134.0ZM641.1 183.0L609.0 183.0L609.0 132.7L641.1 132.7L641.1 141.6L619.8 141.6L619.8 153.1L640.4 153.1L640.4 161.9L619.8 161.9L619.8 174.1L641.1 174.1L641.1 183.0ZM659.3 183.0L648.1 183.0L662.0 164.1L649.0 145.8L661.2 145.8L665.1 151.8L668.1 156.6L668.7 156.6L671.8 151.8L675.8 145.8L687.0 145.8L674.0 163.5L687.9 183.0L675.7 183.0L671.0 176.0L667.8 171.0L667.2 171.0L664.0 176.0L659.3 183.0ZM693.8 197.4L693.8 145.8L704.5 145.8L704.5 152.6L705.0 152.6Q706.4 149.3 709.0 147.1Q711.6 144.9 716.0 144.9L716.0 144.9Q719.1 144.9 721.7 146.1Q724.2 147.2 726.1 149.6Q727.9 152.0 728.9 155.7Q730.0 159.3 730.0 164.4L730.0 164.4Q730.0 169.4 728.9 173.1Q727.9 176.8 726.1 179.1Q724.2 181.5 721.7 182.7Q719.1 183.8 716.0 183.8L716.0 183.8Q711.6 183.8 709.0 181.7Q706.4 179.6 705.0 176.2L705.0 176.2L704.5 176.2L704.5 197.4L693.8 197.4ZM711.4 175.5L711.4 175.5Q715.0 175.5 717.0 173.3Q718.9 171.1 718.9 167.3L718.9 167.3L718.9 161.5Q718.9 157.6 717.0 155.4Q715.0 153.2 711.4 153.2L711.4 153.2Q708.6 153.2 706.6 154.6Q704.5 156.0 704.5 158.9L704.5 158.9L704.5 169.8Q704.5 172.8 706.6 174.2Q708.6 175.5 711.4 175.5ZM774.0 183.0L767.9 183.0Q764.6 183.0 762.5 181.3Q760.5 179.6 760.2 176.4L760.2 176.4L759.8 176.4Q758.8 180.1 755.8 181.9Q752.8 183.8 748.5 183.8L748.5 183.8Q743.1 183.8 739.8 180.9Q736.5 178.0 736.5 172.7L736.5 172.7Q736.5 166.9 740.8 164.1Q745.0 161.3 753.2 161.3L753.2 161.3L759.2 161.3L759.2 159.4Q759.2 156.1 757.7 154.4Q756.1 152.7 752.5 152.7L752.5 152.7Q749.1 152.7 747.0 154.0Q744.9 155.3 743.4 157.4L743.4 157.4L737.6 152.2Q739.4 149.0 743.4 147.0Q747.4 144.9 753.7 144.9L753.7 144.9Q761.3 144.9 765.6 148.4Q769.9 151.9 769.9 159.0L769.9 159.0L769.9 175.2L774.0 175.2L774.0 183.0ZM752.5 176.8L752.5 176.8Q755.3 176.8 757.3 175.5Q759.2 174.1 759.2 171.5L759.2 171.5L759.2 167.0L753.5 167.0Q747.0 167.0 747.0 171.4L747.0 171.4L747.0 172.9Q747.0 174.8 748.5 175.8Q750.0 176.8 752.5 176.8ZM791.3 183.0L780.7 183.0L780.7 145.8L791.3 145.8L791.3 152.6L791.8 152.6Q792.4 151.0 793.4 149.6Q794.3 148.2 795.6 147.2Q797.0 146.2 798.7 145.5Q800.5 144.9 802.7 144.9L802.7 144.9Q805.4 144.9 807.6 145.8Q809.8 146.7 811.4 148.5Q813.0 150.3 813.9 152.9Q814.8 155.5 814.8 158.9L814.8 158.9L814.8 183.0L804.2 183.0L804.2 160.3Q804.2 153.1 797.9 153.1L797.9 153.1Q796.7 153.1 795.5 153.5Q794.3 153.8 793.4 154.5Q792.4 155.2 791.9 156.2Q791.3 157.2 791.3 158.5L791.3 158.5L791.3 183.0ZM840.4 183.8L840.4 183.8Q834.2 183.8 829.6 181.9Q825.0 180.1 822.7 176.8L822.7 176.8L828.7 171.3Q830.9 173.7 833.8 175.0Q836.7 176.3 840.4 176.3L840.4 176.3Q843.6 176.3 845.4 175.4Q847.2 174.4 847.2 172.4L847.2 172.4Q847.2 170.8 846.0 170.2Q844.8 169.6 842.6 169.2L842.6 169.2L836.6 168.3Q834.1 167.9 831.9 167.1Q829.8 166.4 828.2 165.1Q826.6 163.8 825.7 161.9Q824.7 160.1 824.7 157.4L824.7 157.4Q824.7 151.6 829.2 148.2Q833.7 144.9 841.7 144.9L841.7 144.9Q847.2 144.9 851.1 146.4Q854.9 147.9 857.2 150.6L857.2 150.6L851.9 156.7Q850.2 154.9 847.6 153.6Q845.0 152.4 841.4 152.4L841.4 152.4Q835.2 152.4 835.2 156.2L835.2 156.2Q835.2 157.8 836.4 158.4Q837.6 159.0 839.8 159.4L839.8 159.4L845.7 160.3Q848.2 160.7 850.4 161.5Q852.5 162.2 854.2 163.5Q855.8 164.8 856.7 166.7Q857.6 168.6 857.6 171.2L857.6 171.2Q857.6 177.0 853.1 180.4Q848.6 183.8 840.4 183.8ZM886.3 141.0L886.3 141.0Q882.7 141.0 881.3 139.6Q879.9 138.1 879.9 136.0L879.9 136.0L879.9 133.9Q879.9 131.8 881.3 130.3Q882.7 128.9 886.3 128.9L886.3 128.9Q889.9 128.9 891.3 130.3Q892.7 131.8 892.7 133.9L892.7 133.9L892.7 136.0Q892.7 138.1 891.3 139.6Q889.9 141.0 886.3 141.0ZM869.2 183.0L869.2 174.7L881.0 174.7L881.0 154.1L869.2 154.1L869.2 145.8L891.6 145.8L891.6 174.7L902.6 174.7L902.6 183.0L869.2 183.0ZM927.2 183.8L927.2 183.8Q922.9 183.8 919.4 182.5Q916.0 181.2 913.6 178.6Q911.1 176.1 909.8 172.5Q908.6 168.9 908.6 164.4L908.6 164.4Q908.6 159.8 909.8 156.2Q911.1 152.6 913.6 150.1Q916.0 147.6 919.4 146.3Q922.9 144.9 927.2 144.9L927.2 144.9Q931.5 144.9 935.0 146.3Q938.4 147.6 940.8 150.1Q943.3 152.6 944.6 156.2Q945.8 159.8 945.8 164.4L945.8 164.4Q945.8 168.9 944.6 172.5Q943.3 176.1 940.8 178.6Q938.4 181.2 935.0 182.5Q931.5 183.8 927.2 183.8ZM927.2 175.9L927.2 175.9Q930.8 175.9 932.8 173.7Q934.8 171.4 934.8 167.3L934.8 167.3L934.8 161.4Q934.8 157.3 932.8 155.1Q930.8 152.9 927.2 152.9L927.2 152.9Q923.6 152.9 921.6 155.1Q919.6 157.3 919.6 161.4L919.6 161.4L919.6 167.3Q919.6 171.4 921.6 173.7Q923.6 175.9 927.2 175.9ZM964.1 183.0L953.5 183.0L953.5 145.8L964.1 145.8L964.1 152.6L964.6 152.6Q965.2 151.0 966.2 149.6Q967.1 148.2 968.4 147.2Q969.8 146.2 971.5 145.5Q973.3 144.9 975.5 144.9L975.5 144.9Q978.2 144.9 980.4 145.8Q982.6 146.7 984.2 148.5Q985.8 150.3 986.7 152.9Q987.6 155.5 987.6 158.9L987.6 158.9L987.6 183.0L977.0 183.0L977.0 160.3Q977.0 153.1 970.7 153.1L970.7 153.1Q969.5 153.1 968.3 153.5Q967.1 153.8 966.2 154.5Q965.2 155.2 964.7 156.2Q964.1 157.2 964.1 158.5L964.1 158.5L964.1 183.0ZM1008.3 183.0L997.5 183.0L997.5 132.7L1016.9 132.7Q1020.6 132.7 1023.5 133.8Q1026.3 134.9 1028.3 137.0Q1030.3 139.1 1031.3 142.1Q1032.3 145.0 1032.3 148.7L1032.3 148.7Q1032.3 152.4 1031.3 155.3Q1030.3 158.3 1028.3 160.3Q1026.3 162.4 1023.5 163.5Q1020.6 164.7 1016.9 164.7L1016.9 164.7L1008.3 164.7L1008.3 183.0ZM1008.3 141.4L1008.3 156.0L1014.2 156.0Q1018.0 156.0 1019.5 154.5Q1020.9 153.1 1020.9 149.8L1020.9 149.8L1020.9 147.6Q1020.9 144.3 1019.5 142.8Q1018.0 141.4 1014.2 141.4L1014.2 141.4L1008.3 141.4ZM1076.4 183.0L1070.3 183.0Q1067.0 183.0 1064.9 181.3Q1062.9 179.6 1062.6 176.4L1062.6 176.4L1062.2 176.4Q1061.2 180.1 1058.2 181.9Q1055.2 183.8 1050.9 183.8L1050.9 183.8Q1045.5 183.8 1042.2 180.9Q1038.9 178.0 1038.9 172.7L1038.9 172.7Q1038.9 166.9 1043.2 164.1Q1047.4 161.3 1055.6 161.3L1055.6 161.3L1061.6 161.3L1061.6 159.4Q1061.6 156.1 1060.1 154.4Q1058.5 152.7 1054.9 152.7L1054.9 152.7Q1051.5 152.7 1049.4 154.0Q1047.3 155.3 1045.8 157.4L1045.8 157.4L1040.0 152.2Q1041.8 149.0 1045.8 147.0Q1049.8 144.9 1056.1 144.9L1056.1 144.9Q1063.7 144.9 1068.0 148.4Q1072.3 151.9 1072.3 159.0L1072.3 159.0L1072.3 175.2L1076.4 175.2L1076.4 183.0ZM1054.9 176.8L1054.9 176.8Q1057.7 176.8 1059.7 175.5Q1061.6 174.1 1061.6 171.5L1061.6 171.5L1061.6 167.0L1055.9 167.0Q1049.4 167.0 1049.4 171.4L1049.4 171.4L1049.4 172.9Q1049.4 174.8 1050.9 175.8Q1052.4 176.8 1054.9 176.8ZM1093.7 183.0L1083.1 183.0L1083.1 145.8L1093.7 145.8L1093.7 152.6L1094.2 152.6Q1094.8 151.0 1095.8 149.6Q1096.7 148.2 1098.0 147.2Q1099.4 146.2 1101.1 145.5Q1102.9 144.9 1105.1 144.9L1105.1 144.9Q1107.8 144.9 1110.0 145.8Q1112.2 146.7 1113.8 148.5Q1115.4 150.3 1116.3 152.9Q1117.2 155.5 1117.2 158.9L1117.2 158.9L1117.2 183.0L1106.6 183.0L1106.6 160.3Q1106.6 153.1 1100.3 153.1L1100.3 153.1Q1099.1 153.1 1097.9 153.5Q1096.7 153.8 1095.8 154.5Q1094.8 155.2 1094.3 156.2Q1093.7 157.2 1093.7 158.5L1093.7 158.5L1093.7 183.0ZM1144.2 183.8L1144.2 183.8Q1134.8 183.8 1130.0 178.6Q1125.2 173.4 1125.2 164.5L1125.2 164.5Q1125.2 160.0 1126.5 156.3Q1127.7 152.7 1130.1 150.2Q1132.4 147.6 1135.7 146.3Q1139.1 144.9 1143.3 144.9L1143.3 144.9Q1147.4 144.9 1150.8 146.3Q1154.1 147.6 1156.4 150.0Q1158.7 152.5 1159.9 156.0Q1161.2 159.5 1161.2 163.8L1161.2 163.8L1161.2 167.0L1135.8 167.0L1135.8 167.6Q1135.8 171.2 1138.0 173.4Q1140.2 175.6 1144.6 175.6L1144.6 175.6Q1147.9 175.6 1150.3 174.3Q1152.6 173.1 1154.4 171.0L1154.4 171.0L1160.1 177.3Q1158.0 179.9 1154.1 181.9Q1150.2 183.8 1144.2 183.8ZM1143.3 152.6L1143.3 152.6Q1139.9 152.6 1137.8 154.7Q1135.8 156.8 1135.8 160.4L1135.8 160.4L1135.8 161.0L1150.8 161.0L1150.8 160.4Q1150.8 156.7 1148.8 154.7Q1146.8 152.6 1143.3 152.6ZM1169.7 183.0L1169.7 174.7L1181.1 174.7L1181.1 138.0L1169.7 138.0L1169.7 129.7L1191.7 129.7L1191.7 174.7L1203.1 174.7L1203.1 183.0L1169.7 183.0ZM1247.1 183.0L1214.6 183.0L1214.6 132.7L1225.5 132.7L1225.5 174.1L1247.1 174.1L1247.1 183.0ZM1275.1 141.0L1275.1 141.0Q1271.5 141.0 1270.1 139.6Q1268.7 138.1 1268.7 136.0L1268.7 136.0L1268.7 133.9Q1268.7 131.8 1270.1 130.3Q1271.5 128.9 1275.1 128.9L1275.1 128.9Q1278.7 128.9 1280.1 130.3Q1281.5 131.8 1281.5 133.9L1281.5 133.9L1281.5 136.0Q1281.5 138.1 1280.1 139.6Q1278.7 141.0 1275.1 141.0ZM1258.0 183.0L1258.0 174.7L1269.8 174.7L1269.8 154.1L1258.0 154.1L1258.0 145.8L1280.4 145.8L1280.4 174.7L1291.4 174.7L1291.4 183.0L1258.0 183.0ZM1315.6 183.8L1315.6 183.8Q1309.4 183.8 1304.8 181.9Q1300.2 180.1 1297.9 176.8L1297.9 176.8L1303.9 171.3Q1306.1 173.7 1309.0 175.0Q1311.9 176.3 1315.6 176.3L1315.6 176.3Q1318.8 176.3 1320.6 175.4Q1322.4 174.4 1322.4 172.4L1322.4 172.4Q1322.4 170.8 1321.2 170.2Q1320.0 169.6 1317.8 169.2L1317.8 169.2L1311.8 168.3Q1309.3 167.9 1307.1 167.1Q1305.0 166.4 1303.4 165.1Q1301.8 163.8 1300.9 161.9Q1299.9 160.1 1299.9 157.4L1299.9 157.4Q1299.9 151.6 1304.4 148.2Q1308.9 144.9 1316.9 144.9L1316.9 144.9Q1322.4 144.9 1326.3 146.4Q1330.1 147.9 1332.4 150.6L1332.4 150.6L1327.1 156.7Q1325.4 154.9 1322.8 153.6Q1320.2 152.4 1316.6 152.4L1316.6 152.4Q1310.4 152.4 1310.4 156.2L1310.4 156.2Q1310.4 157.8 1311.6 158.4Q1312.8 159.0 1315.0 159.4L1315.0 159.4L1320.9 160.3Q1323.4 160.7 1325.6 161.5Q1327.7 162.2 1329.4 163.5Q1331.0 164.8 1331.9 166.7Q1332.8 168.6 1332.8 171.2L1332.8 171.2Q1332.8 177.0 1328.3 180.4Q1323.8 183.8 1315.6 183.8ZM1375.8 183.0L1362.1 183.0Q1356.3 183.0 1353.5 179.9Q1350.7 176.9 1350.7 172.2L1350.7 172.2L1350.7 154.1L1340.6 154.1L1340.6 145.8L1347.2 145.8Q1349.6 145.8 1350.6 144.9Q1351.6 143.9 1351.6 141.4L1351.6 141.4L1351.6 132.7L1361.4 132.7L1361.4 145.8L1375.8 145.8L1375.8 154.1L1361.4 154.1L1361.4 174.7L1375.8 174.7L1375.8 183.0ZM1421.7 183.0L1383.1 183.0L1383.1 126.8L1421.7 126.8L1421.7 183.0ZM1390.3 134.0L1390.3 175.8L1414.5 175.8L1414.5 134.0L1390.3 134.0Z M168.9 276.6L130.3 276.6L130.3 220.4L168.9 220.4L168.9 276.6ZM137.5 227.6L137.5 269.4L161.7 269.4L161.7 227.6L137.5 227.6Z " clip-path="url(#satori_cp-id-1-0-0)" mask="url(#satori_om-id-1-0-0)"/><path fill="black" d="M130.7 520.3L130.7 499.6L132.9 499.6L132.9 508.2L133.0 508.2Q134.4 505.5 137.5 505.5L137.5 505.5Q140.1 505.5 141.6 507.5Q143.1 509.5 143.1 513.0L143.1 513.0Q143.1 516.6 141.6 518.6Q140.1 520.6 137.5 520.6L137.5 520.6Q134.4 520.6 133.0 517.9L133.0 517.9L132.9 517.9L132.9 520.3L130.7 520.3ZM136.6 518.6L136.6 518.6Q138.6 518.6 139.6 517.4Q140.7 516.2 140.7 514.3L140.7 514.3L140.7 511.8Q140.7 509.9 139.6 508.7Q138.6 507.5 136.6 507.5L136.6 507.5Q135.8 507.5 135.2 507.7Q134.5 507.9 134.0 508.2Q133.5 508.6 133.2 509.2Q132.9 509.7 132.9 510.4L132.9 510.4L132.9 515.7Q132.9 516.4 133.2 516.9Q133.5 517.5 134.0 517.8Q134.5 518.2 135.2 518.4Q135.8 518.6 136.6 518.6ZM155.4 511.9L157.9 505.8L160.1 505.8L152.9 523.4Q152.7 524.1 152.4 524.5Q152.1 525.0 151.7 525.3Q151.2 525.6 150.7 525.7Q150.1 525.9 149.3 525.9L149.3 525.9L147.1 525.9L147.1 524.0L150.5 524.0L152.1 520.0L146.3 505.8L148.6 505.8L151.0 511.9L153.2 517.4L153.3 517.4L155.4 511.9Z "/><clipPath id="satori_cp-id-1-0-1-0-2"><rect x="178" y="489" width="201" height="36"/></clipPath><mask id="satori_om-id-1-0-1-0-2"><rect x="178" y="489" width="201" height="36" fill="#fff"/></mask><path fill="black" d="M194.7 520.1L190.2 520.1L188.9 515.4L183.6 515.4L182.4 520.1L178.1 520.1L183.4 500.5L189.4 500.5L194.7 520.1ZM188.3 512.0L186.4 504.6L186.2 504.6L184.3 512.0L188.3 512.0ZM199.0 520.1L195.6 520.1L195.6 505.6L199.0 505.6L199.0 507.8L199.2 507.8Q199.5 506.8 200.1 506.0Q200.8 505.3 201.9 505.3L201.9 505.3Q204.0 505.3 204.5 507.8L204.5 507.8L204.7 507.8Q204.8 507.3 205.1 506.8Q205.3 506.4 205.7 506.0Q206.1 505.7 206.6 505.5Q207.1 505.3 207.7 505.3L207.7 505.3Q210.8 505.3 210.8 509.8L210.8 509.8L210.8 520.1L207.4 520.1L207.4 510.2Q207.4 509.2 207.1 508.8Q206.7 508.4 206.2 508.4L206.2 508.4Q205.6 508.4 205.3 508.7Q204.9 509.1 204.9 509.8L204.9 509.8L204.9 520.1L201.5 520.1L201.5 510.2Q201.5 509.2 201.2 508.8Q200.9 508.4 200.3 508.4L200.3 508.4Q199.8 508.4 199.4 508.7Q199.0 509.1 199.0 509.8L199.0 509.8L199.0 520.1ZM227.6 520.1L225.2 520.1Q223.9 520.1 223.2 519.4Q222.4 518.8 222.2 517.5L222.2 517.5L222.1 517.5Q221.7 519.0 220.5 519.7Q219.4 520.4 217.7 520.4L217.7 520.4Q215.6 520.4 214.3 519.3Q213.1 518.2 213.1 516.1L213.1 516.1Q213.1 513.8 214.7 512.8Q216.4 511.7 219.6 511.7L219.6 511.7L221.9 511.7L221.9 510.9Q221.9 509.6 221.3 509.0Q220.7 508.3 219.2 508.3L219.2 508.3Q217.9 508.3 217.1 508.8Q216.3 509.3 215.7 510.2L215.7 510.2L213.4 508.1Q214.2 506.9 215.7 506.1Q217.3 505.3 219.7 505.3L219.7 505.3Q222.7 505.3 224.4 506.7Q226.0 508.0 226.0 510.8L226.0 510.8L226.0 517.1L227.6 517.1L227.6 520.1ZM219.3 517.7L219.3 517.7Q220.4 517.7 221.1 517.2Q221.9 516.6 221.9 515.6L221.9 515.6L221.9 513.9L219.7 513.9Q217.1 513.9 217.1 515.6L217.1 515.6L217.1 516.2Q217.1 516.9 217.7 517.3Q218.3 517.7 219.3 517.7ZM243.4 520.1L230.2 520.1L230.2 516.6L238.3 508.9L230.5 508.9L230.5 505.6L243.1 505.6L243.1 509.1L235.0 516.9L243.4 516.9L243.4 520.1ZM254.5 503.8L254.5 503.8Q253.1 503.8 252.6 503.2Q252.0 502.6 252.0 501.8L252.0 501.8L252.0 501.0Q252.0 500.2 252.6 499.6Q253.1 499.1 254.5 499.1L254.5 499.1Q255.9 499.1 256.4 499.6Q257.0 500.2 257.0 501.0L257.0 501.0L257.0 501.8Q257.0 502.6 256.4 503.2Q255.9 503.8 254.5 503.8ZM247.8 520.1L247.8 516.9L252.4 516.9L252.4 508.9L247.8 508.9L247.8 505.6L256.6 505.6L256.6 516.9L260.8 516.9L260.8 520.1L247.8 520.1ZM268.0 520.1L263.8 520.1L263.8 505.6L268.0 505.6L268.0 508.3L268.1 508.3Q268.4 507.7 268.7 507.1Q269.1 506.6 269.6 506.2Q270.1 505.8 270.8 505.5Q271.5 505.3 272.4 505.3L272.4 505.3Q273.4 505.3 274.3 505.7Q275.2 506.0 275.8 506.7Q276.4 507.4 276.7 508.4Q277.1 509.4 277.1 510.7L277.1 510.7L277.1 520.1L272.9 520.1L272.9 511.3Q272.9 508.5 270.5 508.5L270.5 508.5Q270.0 508.5 269.6 508.6Q269.1 508.8 268.7 509.0Q268.4 509.3 268.2 509.7Q268.0 510.1 268.0 510.6L268.0 510.6L268.0 520.1ZM295.1 521.5L295.1 521.5Q295.1 523.8 293.2 524.9Q291.3 526.0 287.1 526.0L287.1 526.0Q285.0 526.0 283.7 525.8Q282.4 525.6 281.6 525.1Q280.8 524.7 280.4 524.0Q280.1 523.4 280.1 522.7L280.1 522.7Q280.1 521.5 280.8 520.8Q281.6 520.2 282.9 519.9L282.9 519.9L282.9 519.7Q282.0 519.4 281.4 518.9Q280.9 518.4 280.9 517.4L280.9 517.4Q280.9 516.4 281.6 515.9Q282.3 515.4 283.5 515.1L283.5 515.1L283.5 514.9Q282.2 514.3 281.5 513.2Q280.8 512.1 280.8 510.5L280.8 510.5Q280.8 509.2 281.2 508.2Q281.7 507.3 282.5 506.6Q283.3 506.0 284.5 505.6Q285.6 505.3 287.0 505.3L287.0 505.3Q288.4 505.3 289.6 505.6L289.6 505.6L289.6 504.8Q289.6 504.0 290.2 503.4Q290.8 502.9 291.8 502.9L291.8 502.9L294.3 502.9L294.3 505.9L290.9 505.9L290.9 506.1Q292.0 506.8 292.7 507.8Q293.4 508.9 293.4 510.5L293.4 510.5Q293.4 511.7 292.9 512.7Q292.5 513.6 291.6 514.3Q290.8 514.9 289.6 515.3Q288.5 515.6 287.0 515.6L287.0 515.6Q286.4 515.6 285.8 515.5Q285.2 515.5 284.7 515.3L284.7 515.3Q284.4 515.5 284.2 515.8Q284.0 516.0 284.0 516.4L284.0 516.4Q284.0 516.7 284.1 516.9Q284.3 517.1 284.6 517.2Q284.9 517.3 285.3 517.3Q285.7 517.4 286.1 517.4L286.1 517.4L289.4 517.4Q290.9 517.4 292.0 517.7Q293.1 518.0 293.8 518.6Q294.5 519.1 294.8 519.9Q295.1 520.6 295.1 521.5ZM291.2 521.9L291.2 521.9Q291.2 521.3 290.8 521.0Q290.3 520.7 289.0 520.7L289.0 520.7L284.1 520.7Q283.5 521.1 283.5 521.8L283.5 521.8Q283.5 522.5 284.1 522.9Q284.7 523.4 286.1 523.4L286.1 523.4L288.5 523.4Q289.9 523.4 290.6 523.0Q291.2 522.6 291.2 521.9ZM287.0 513.0L287.0 513.0Q288.3 513.0 288.9 512.4Q289.4 511.7 289.4 510.8L289.4 510.8L289.4 510.1Q289.4 509.2 288.9 508.6Q288.3 507.9 287.0 507.9L287.0 507.9Q285.8 507.9 285.2 508.6Q284.7 509.2 284.7 510.1L284.7 510.1L284.7 510.8Q284.7 511.7 285.2 512.4Q285.8 513.0 287.0 513.0Z M321.2 520.4L321.2 520.4Q317.3 520.4 315.4 517.8Q313.5 515.1 313.5 510.3L313.5 510.3Q313.5 505.5 315.4 502.9Q317.3 500.2 321.2 500.2L321.2 500.2Q322.8 500.2 323.9 500.6Q325.1 501.0 325.9 501.8Q326.8 502.5 327.3 503.5Q327.9 504.6 328.2 505.8L328.2 505.8L324.2 506.8Q324.1 506.1 323.9 505.5Q323.6 504.9 323.3 504.5Q322.9 504.1 322.4 503.8Q321.9 503.6 321.2 503.6L321.2 503.6Q319.5 503.6 318.7 504.9Q318.0 506.3 318.0 508.6L318.0 508.6L318.0 512.0Q318.0 514.4 318.7 515.7Q319.5 517.0 321.2 517.0L321.2 517.0Q322.6 517.0 323.3 516.1Q323.9 515.2 324.2 513.8L324.2 513.8L328.2 514.8Q327.9 516.1 327.3 517.1Q326.8 518.2 325.9 518.9Q325.1 519.6 323.9 520.0Q322.8 520.4 321.2 520.4ZM331.0 520.1L331.0 499.4L335.2 499.4L335.2 508.3L335.3 508.3Q335.6 507.7 335.9 507.1Q336.3 506.6 336.8 506.2Q337.3 505.8 338.0 505.5Q338.7 505.3 339.6 505.3L339.6 505.3Q340.6 505.3 341.5 505.7Q342.4 506.0 343.0 506.7Q343.6 507.4 343.9 508.4Q344.3 509.4 344.3 510.7L344.3 510.7L344.3 520.1L340.1 520.1L340.1 511.3Q340.1 508.5 337.7 508.5L337.7 508.5Q337.2 508.5 336.8 508.6Q336.3 508.8 335.9 509.0Q335.6 509.3 335.4 509.7Q335.2 510.1 335.2 510.6L335.2 510.6L335.2 520.1L331.0 520.1ZM354.8 520.4L354.8 520.4Q351.2 520.4 349.3 518.4Q347.4 516.4 347.4 512.9L347.4 512.9Q347.4 511.2 347.9 509.7Q348.4 508.3 349.3 507.3Q350.2 506.3 351.5 505.8Q352.8 505.3 354.4 505.3L354.4 505.3Q356.1 505.3 357.3 505.8Q358.6 506.3 359.5 507.3Q360.4 508.2 360.9 509.6Q361.4 511.0 361.4 512.6L361.4 512.6L361.4 513.9L351.5 513.9L351.5 514.1Q351.5 515.5 352.4 516.4Q353.3 517.2 354.9 517.2L354.9 517.2Q356.2 517.2 357.1 516.7Q358.1 516.3 358.7 515.4L358.7 515.4L361.0 517.9Q360.1 518.9 358.6 519.7Q357.1 520.4 354.8 520.4ZM354.5 508.3L354.5 508.3Q353.1 508.3 352.3 509.1Q351.5 509.9 351.5 511.3L351.5 511.3L351.5 511.6L357.3 511.6L357.3 511.3Q357.3 509.9 356.6 509.1Q355.8 508.3 354.5 508.3ZM368.8 520.1L364.6 520.1L364.6 505.6L368.8 505.6L368.8 508.3L368.9 508.3Q369.2 507.7 369.5 507.1Q369.9 506.6 370.4 506.2Q370.9 505.8 371.6 505.5Q372.3 505.3 373.2 505.3L373.2 505.3Q374.2 505.3 375.1 505.7Q376.0 506.0 376.6 506.7Q377.2 507.4 377.5 508.4Q377.9 509.4 377.9 510.7L377.9 510.7L377.9 520.1L373.7 520.1L373.7 511.3Q373.7 508.5 371.3 508.5L371.3 508.5Q370.8 508.5 370.4 508.6Q369.9 508.8 369.5 509.0Q369.2 509.3 369.0 509.7Q368.8 510.1 368.8 510.6L368.8 510.6L368.8 520.1Z " clip-path="url(#satori_cp-id-1-0-1-0-2)" mask="url(#satori_om-id-1-0-1-0-2)"/><clipPath id="satori_cp-id-1-0-1-1"><rect x="954" y="489" width="118" height="36"/></clipPath><mask id="satori_om-id-1-0-1-1"><rect x="954" y="489" width="118" height="36" fill="#fff"/></mask><path fill="black" d="M970.7 520.1L966.2 520.1L964.9 515.4L959.6 515.4L958.4 520.1L954.1 520.1L959.4 500.5L965.4 500.5L970.7 520.1ZM964.3 512.0L962.4 504.6L962.2 504.6L960.3 512.0L964.3 512.0ZM975.0 520.1L971.6 520.1L971.6 505.6L975.0 505.6L975.0 507.8L975.2 507.8Q975.5 506.8 976.1 506.0Q976.8 505.3 977.9 505.3L977.9 505.3Q980.0 505.3 980.5 507.8L980.5 507.8L980.7 507.8Q980.8 507.3 981.1 506.8Q981.3 506.4 981.7 506.0Q982.1 505.7 982.6 505.5Q983.1 505.3 983.7 505.3L983.7 505.3Q986.8 505.3 986.8 509.8L986.8 509.8L986.8 520.1L983.4 520.1L983.4 510.2Q983.4 509.2 983.1 508.8Q982.7 508.4 982.2 508.4L982.2 508.4Q981.6 508.4 981.3 508.7Q980.9 509.1 980.9 509.8L980.9 509.8L980.9 520.1L977.5 520.1L977.5 510.2Q977.5 509.2 977.2 508.8Q976.9 508.4 976.3 508.4L976.3 508.4Q975.8 508.4 975.4 508.7Q975.0 509.1 975.0 509.8L975.0 509.8L975.0 520.1ZM1003.6 520.1L1001.2 520.1Q999.9 520.1 999.2 519.4Q998.4 518.8 998.2 517.5L998.2 517.5L998.1 517.5Q997.7 519.0 996.5 519.7Q995.4 520.4 993.7 520.4L993.7 520.4Q991.6 520.4 990.3 519.3Q989.1 518.2 989.1 516.1L989.1 516.1Q989.1 513.8 990.7 512.8Q992.4 511.7 995.6 511.7L995.6 511.7L997.9 511.7L997.9 510.9Q997.9 509.6 997.3 509.0Q996.7 508.3 995.2 508.3L995.2 508.3Q993.9 508.3 993.1 508.8Q992.3 509.3 991.7 510.2L991.7 510.2L989.4 508.1Q990.2 506.9 991.7 506.1Q993.3 505.3 995.7 505.3L995.7 505.3Q998.7 505.3 1000.4 506.7Q1002.0 508.0 1002.0 510.8L1002.0 510.8L1002.0 517.1L1003.6 517.1L1003.6 520.1ZM995.3 517.7L995.3 517.7Q996.4 517.7 997.1 517.2Q997.9 516.6 997.9 515.6L997.9 515.6L997.9 513.9L995.7 513.9Q993.1 513.9 993.1 515.6L993.1 515.6L993.1 516.2Q993.1 516.9 993.7 517.3Q994.3 517.7 995.3 517.7ZM1019.4 520.1L1006.2 520.1L1006.2 516.6L1014.3 508.9L1006.5 508.9L1006.5 505.6L1019.1 505.6L1019.1 509.1L1011.0 516.9L1019.4 516.9L1019.4 520.1ZM1030.5 503.8L1030.5 503.8Q1029.1 503.8 1028.5 503.2Q1028.0 502.6 1028.0 501.8L1028.0 501.8L1028.0 501.0Q1028.0 500.2 1028.5 499.6Q1029.1 499.1 1030.5 499.1L1030.5 499.1Q1031.9 499.1 1032.4 499.6Q1033.0 500.2 1033.0 501.0L1033.0 501.0L1033.0 501.8Q1033.0 502.6 1032.4 503.2Q1031.9 503.8 1030.5 503.8ZM1023.8 520.1L1023.8 516.9L1028.4 516.9L1028.4 508.9L1023.8 508.9L1023.8 505.6L1032.6 505.6L1032.6 516.9L1036.8 516.9L1036.8 520.1L1023.8 520.1ZM1044.0 520.1L1039.8 520.1L1039.8 505.6L1044.0 505.6L1044.0 508.3L1044.1 508.3Q1044.4 507.7 1044.7 507.1Q1045.1 506.6 1045.6 506.2Q1046.1 505.8 1046.8 505.5Q1047.5 505.3 1048.4 505.3L1048.4 505.3Q1049.4 505.3 1050.3 505.7Q1051.2 506.0 1051.8 506.7Q1052.4 507.4 1052.7 508.4Q1053.1 509.4 1053.1 510.7L1053.1 510.7L1053.1 520.1L1048.9 520.1L1048.9 511.3Q1048.9 508.5 1046.5 508.5L1046.5 508.5Q1046.0 508.5 1045.6 508.6Q1045.1 508.8 1044.7 509.0Q1044.4 509.3 1044.2 509.7Q1044.0 510.1 1044.0 510.6L1044.0 510.6L1044.0 520.1ZM1071.1 521.5L1071.1 521.5Q1071.1 523.8 1069.2 524.9Q1067.3 526.0 1063.1 526.0L1063.1 526.0Q1061.0 526.0 1059.7 525.8Q1058.4 525.6 1057.6 525.1Q1056.8 524.7 1056.4 524.0Q1056.1 523.4 1056.1 522.7L1056.1 522.7Q1056.1 521.5 1056.8 520.8Q1057.6 520.2 1058.9 519.9L1058.9 519.9L1058.9 519.7Q1058.0 519.4 1057.4 518.9Q1056.9 518.4 1056.9 517.4L1056.9 517.4Q1056.9 516.4 1057.6 515.9Q1058.3 515.4 1059.5 515.1L1059.5 515.1L1059.5 514.9Q1058.2 514.3 1057.5 513.2Q1056.8 512.1 1056.8 510.5L1056.8 510.5Q1056.8 509.2 1057.2 508.2Q1057.7 507.3 1058.5 506.6Q1059.3 506.0 1060.5 505.6Q1061.6 505.3 1063.0 505.3L1063.0 505.3Q1064.4 505.3 1065.6 505.6L1065.6 505.6L1065.6 504.8Q1065.6 504.0 1066.2 503.4Q1066.8 502.9 1067.8 502.9L1067.8 502.9L1070.3 502.9L1070.3 505.9L1066.9 505.9L1066.9 506.1Q1068.0 506.8 1068.7 507.8Q1069.4 508.9 1069.4 510.5L1069.4 510.5Q1069.4 511.7 1068.9 512.7Q1068.5 513.6 1067.6 514.3Q1066.8 514.9 1065.6 515.3Q1064.5 515.6 1063.0 515.6L1063.0 515.6Q1062.4 515.6 1061.8 515.5Q1061.2 515.5 1060.7 515.3L1060.7 515.3Q1060.4 515.5 1060.2 515.8Q1060.0 516.0 1060.0 516.4L1060.0 516.4Q1060.0 516.7 1060.1 516.9Q1060.3 517.1 1060.6 517.2Q1060.9 517.3 1061.3 517.3Q1061.7 517.4 1062.1 517.4L1062.1 517.4L1065.4 517.4Q1066.9 517.4 1068.0 517.7Q1069.1 518.0 1069.8 518.6Q1070.5 519.1 1070.8 519.9Q1071.1 520.6 1071.1 521.5ZM1067.2 521.9L1067.2 521.9Q1067.2 521.3 1066.8 521.0Q1066.3 520.7 1065.0 520.7L1065.0 520.7L1060.1 520.7Q1059.5 521.1 1059.5 521.8L1059.5 521.8Q1059.5 522.5 1060.1 522.9Q1060.7 523.4 1062.1 523.4L1062.1 523.4L1064.5 523.4Q1065.9 523.4 1066.6 523.0Q1067.2 522.6 1067.2 521.9ZM1063.0 513.0L1063.0 513.0Q1064.3 513.0 1064.9 512.4Q1065.4 511.7 1065.4 510.8L1065.4 510.8L1065.4 510.1Q1065.4 509.2 1064.9 508.6Q1064.3 507.9 1063.0 507.9L1063.0 507.9Q1061.8 507.9 1061.2 508.6Q1060.7 509.2 1060.7 510.1L1060.7 510.1L1060.7 510.8Q1060.7 511.7 1061.2 512.4Q1061.8 513.0 1063.0 513.0Z " clip-path="url(#satori_cp-id-1-0-1-1)" mask="url(#satori_om-id-1-0-1-1)"/></svg>