<svg xmlns="http://www.w3.org/2000/svg" width="1081.333" height="1081.333" version="1.0" viewBox="0 0 811 811"><path d="M417.5 2c-19.6 1.6-36.9 12.6-46.9 30C366 39.9 360 57 360 61.9c0 1.7-.5 4.2-1.1 5.8-1.7 4.6-1.3 44.9.7 56.8.9 5.5 2 12.2 2.4 15 3 19.2 6.3 29.3 10.3 31.5 2.7 1.4 2.9 1.4 4.8-.9 2.6-3.2 2.5-9.5-.5-22.3-5-21.4-6.9-37.1-7-57.3-.1-19.4.6-24.7 4.5-37.4 6.9-22.1 19.4-34.6 38.7-38.7 11-2.3 15.2-1.9 37.5 3.2 7.8 1.8 7.8 1.8 9.9-.4 4.6-4.6-1-9.1-16.2-13.1-9.1-2.3-16-2.9-26.5-2.1m48.7 15.2c-.7.7-1.2 1.8-1.2 2.6s4.7 6.1 10.4 11.7c8.7 8.6 11 11.5 14.5 18.6 5.2 10.6 7.6 20.2 10.2 40.4 1.8 14 2 19.3 1.5 43-.3 14.8-.8 36.9-1 49s-.9 27.4-1.5 34-1.6 19.6-2.1 29c-1.2 18.8-2.3 24.5-7.6 36.7-4.2 9.9-4.6 13.4-1.4 16 4.8 3.9 9.8.7 14.2-9.1 6.8-15 8.8-34.1 9.3-88.1.2-17.3.8-33.5 1.4-36s1.6-12.2 2.3-21.7c1-14.9 1-19.7-.5-37-1.8-19.9-2.2-23-5.9-40.2-2.2-10.1-6.5-21.3-10.4-27.1-4.1-5.9-15.6-17-21-20.1-5.5-3.1-9.2-3.7-11.2-1.7M121.5 111c-1.1.5-3.4.9-5.1.9-8.3.2-28 9.5-33.9 16.1-1.1 1.2-3.2 2.8-4.7 3.6-4.1 2.1-14 15.1-19.1 25.2-7.2 14-9.7 24.7-9.7 41.5 0 18 2.4 28.3 11 46.3 11.7 24.8 32.1 49 60.5 71.6 10.5 8.4 25.9 18.5 29.4 19.3 4.5 1 7.1-.9 7.1-5 0-3.9-1.2-5-24.5-23C99.7 282 83 263 70.5 236.6c-7.4-15.4-9-22.9-8.9-39.6.2-16.4 2.7-26.6 9.4-38.4 6-10.5 17.8-21.7 28.5-27.3 11.9-6.1 17.1-7.4 34.3-8.3 16.8-.9 19.6-1.9 19-6.9-.5-4-7-6-19.3-6-5.5 0-10.9.4-12 .9m41.2 12.2c-5.3 6.6-6.1 8.6-4.6 11.4 2.3 4.5 7.4 2.7 13.6-4.6 3.3-4 3.7-6.6 1.4-8.9-3.3-3.3-6.5-2.7-10.4 2.1m19.7 7.1c-3.3 1.9-9.9 8-11.7 10.7-2.4 3.8-.4 7.4 4.4 7.8 2.8.2 4.6-.6 9.9-4.5 3.8-2.8 6.9-6 7.5-7.7.8-2.5.6-3.1-1.8-5.2-3.1-2.7-5.2-2.9-8.3-1.1m16.6 11.5c-2 .7-3 2.2-3 5.1 0 1.8 4.4 6.8 17.9 20 9.8 9.7 20.6 21.1 23.9 25.3 6.1 7.9 18.6 26.5 23.7 35.3 4.7 8.2 10.1 16 13.8 19.8 4 4 17.7 23.2 25.3 35.2 8.3 13.1 12.9 22.2 18.5 36.5 5.5 14.2 7.2 17 9.9 17 4.8 0 5.1-4.7.9-16.7-6.4-18.3-16.9-36.7-32.2-56.6-3.4-4.4-7.8-10.1-9.8-12.7s-4.4-6.9-5.3-9.6c-.9-2.8-4.1-9-7.1-13.9-3-5-5.8-9.7-6.2-10.5-1.4-3.2-13.7-21.6-19.3-28.9-7-9.2-29.2-31.8-38.7-39.3-6.9-5.6-9.6-6.9-12.3-6m177.8 33.9c-4.1.5-6.8 3.2-6.8 7 0 3.6 3.6 5.3 11.5 5.3 5.8 0 7.5-.4 9.3-2 2.8-2.6 2.8-6.4 0-9-2.2-2-4.8-2.2-14-1.3m-2.3 18c-3.3.8-4.5 2.4-4.5 5.9 0 4.6 2.5 5.7 11.7 5.2 6.4-.3 7.8-.7 9.4-2.7 2.4-3 2.4-4.2-.1-6.9-1.7-1.8-3.1-2.2-8.3-2.1-3.4.1-7.1.4-8.2.6m-2 17.2c-1.7 5.4 6.6 47.5 14.7 75.1.6 1.9 1.1 5 1.2 6.9.1 3-.3 3.4-3.9 4.8-10.1 3.7-13.6 5.7-14.2 8.1-.4 1.6.1 3 1.5 4.4l2 2 12.3-3.1c6.7-1.7 13-3.7 13.8-4.6 3.3-3.2 1.9-14.1-5.3-42-6.8-26.2-12.6-45.7-15.2-50.8-1.7-3.3-5.9-3.8-6.9-.8m132.6 82c-3.6 4.5-3.8 7.6-.5 9.8 1.9 1.2 2.5 1.1 5.1-1.1 3.7-3.1 7.1-9.2 5.8-10.5-.6-.5-2.4-1.2-4.1-1.5-2.8-.6-3.5-.3-6.3 3.3m11.4 4.8c-4.8 6.1-5.5 9.7-2.3 11.7 2.4 1.4 6-1.4 11.2-8.7 3.9-5.5 3.9-5.7 2-7.2-3.7-2.8-6.1-1.8-10.9 4.2m-160.8 1.1c-2.2 2.5-2.2 5.1.5 15 2.3 8.9 4 10.9 8.4 9.8 4.1-1.1 4.8-4.2 3-13.6-.9-4.6-2.3-9.4-3.1-10.7-1.9-2.8-6.5-3.1-8.8-.5M528 301c-4.2 4.2-1.6 6.6 12 10.7 17.6 5.3 29.2 11.3 39.8 20.5 3.6 3.1 7.3 3.6 9.6 1.2 3.4-3.3 1.7-6.7-6.4-12.8-11.5-8.8-24.5-14.7-41.9-19.1-11.6-3-10.6-3-13.1-.5m-186.9 4.6c-2.1 1.5-2.3 2.2-1.8 7.3.8 8.2 2.8 13.3 5.9 15.1 3.5 1.9 5.9.6 7.2-3.8.6-2.2.3-4.7-1.4-9.8-3.3-10.2-5.3-12-9.9-8.8m-174.9 19.1c-2.9 2.5-9.2 12.4-9.2 14.5 0 2.4 2.7 4.8 5.5 4.8 2.5 0 4.4-2.2 8.9-10.2 3-5.4 3.2-7.1 1-9.2-2-2.1-3.7-2-6.2.1m11.6 10.5c-5.8 6.3-10.8 13.5-10.8 15.7 0 1.4.9 2.5 2.7 3.2 2.2.8 3 .6 5.4-1.7l2.8-2.7 1.8 2.1c2.8 3.3 33.5 24.6 43.6 30.3 15.8 8.9 30.8 15.9 34.2 15.9 5.4 0 8.5-6 5.3-10.2-.7-.9-7.1-4.4-14.3-7.6-15.5-7.2-21.4-10.5-37.7-21-14.9-9.6-24.8-15.2-27.2-15.2-1.7 0-1.6-.3.3-3.6 1.2-1.9 2.1-4.6 2.1-6 0-3.7-4.3-3.2-8.2.8m417.2 0c-3.8 2.6-4.8 5.1-3 7.3 3.3 4 15.8-2.1 14.8-7.2-.5-2.9-7.5-3-11.8-.1m8.9 7.5c-2.4.8-5 2.1-5.8 2.8-1.8 1.8-.7 6.2 1.8 7s12.7-3.1 13.5-5.2c.7-1.7-.1-5.3-1.2-5.4-.4 0-1.4-.2-2.3-.4-.8-.1-3.5.4-6 1.2m11.3 8.5c-1.6 1.6-1.5 5.3.1 6.6.7.6 4.6 2.3 8.7 3.8 11.7 4.1 22.8 10.3 29.1 16.1 5.8 5.4 11.9 13.5 11.9 15.9 0 .7-5.4 5.8-12.1 11.3-16.9 14-27.9 24.7-27.9 27.1 0 2.7 4.1 2.7 6.6-.1s26.7-24.5 32.2-28.9c3.6-2.8 4.5-3.2 5.3-2 1.6 2.6 4.9 11.9 5.5 15.8l.6 3.8-6.3 2.9c-7.2 3.2-33 18.3-34.1 19.9-1.2 1.7-.5 4 1.4 4.4.9.2 4.2-1.3 7.3-3.4 7.5-4.7 31.6-18.4 32.5-18.4s1.7 3.9 2.6 12.4l.7 6.4-5.9 1.2c-16.1 3.1-34 7.3-35.1 8.2-.7.6-1.3 1.7-1.3 2.5 0 3.1 2.2 2.8 31.5-4l10-2.4.3 6.1c.9 17.4-9.2 37.8-27.4 55.3-4.2 4-5.4 5.9-5.4 8.2 0 1.6.5 3.3 1 3.6.6.3 1 1.8 1 3.3 0 2.2 5.9 8.6 33.9 36.2 27.5 27.1 35.5 35.7 42.3 45 12.7 17.5 15.8 22.6 14.6 23.8-.7.7 0 1.2 2.2 1.7 5.7 1.2 8.5-3.5 6-10.1-1.1-2.8-10-16.2-15.3-23-1.8-2.2-5.1-6.5-7.3-9.5-4.4-5.7-29.1-30-51-50.3-18.9-17.4-17.9-14.8-8.9-25.3 17.5-20.2 24.3-35.5 26-58.3.3-4.6.8-8.7 1.1-8.9.9-1 26.5-4 42.9-5.1 9.4-.7 18.8-1.5 20.9-1.9 4-.6 5.8-2.5 3.4-3.3-1.9-.7-36.2 1-44.3 2.2-12.8 1.8-23 2.6-23.6 1.8-1-1.5-3-21.1-2.2-21.8 1.4-1.3 12.1-5 27.8-9.7 8.3-2.5 16-4.9 17.3-5.4 3.1-1.2 2.9-3.9-.3-3.9-4 0-20.7 4.7-31.8 9-16.5 6.3-14.8 6.7-18.9-4.7-1.9-5.4-3.8-10.5-4.2-11.4-1-2.3 1.1-4.1 17.3-15.1 7.5-5 13.9-9.6 14.3-10.2 1.2-1.7-2-2.8-4.4-1.5-2.9 1.5-22.5 14.5-25.7 17-3.3 2.6-5.4 2.4-7.4-.9-2.2-3.6-11.1-12.9-16.8-17.5-5.2-4.2-17-9.8-27.9-13.3-8.4-2.7-11.1-2.9-12.8-1.2m-380.3 57.5c-3.5 3.1-7.1 6.6-8 7.7-.9 1.2-3.6 4.1-5.9 6.6-20.9 21.9-33.7 64.5-32.9 109.1l.3 15-3.5 4.7c-11.2 14.9-15.1 30.2-12.8 49.5 1 8.6 1 9-1.2 11.3l-2.2 2.4h3c2.7 0 3.2.5 4.8 4.7 1 2.7 2.2 5.2 2.6 5.7 1.7 1.8.9 3.1-3.1 5-2.2 1.1-4 2.3-4 2.7 0 .8 7.8 3.3 12.5 4.1 1.5.2 2 1.1 2 3.3 0 2.4.4 3 2.1 3 1.1.1 5 2.4 8.5 5.2 7.3 5.8 15.6 10.5 21.4 12.3 2.2.7 4.4 1.6 4.9 2 .9.9-3.4 11.2-5.7 13.4-2.3 2.3-14.7 21.2-14.7 22.4 0 4 4.4-.8 14.6-16.3 6.4-9.6 11.9-17.5 12.3-17.5.3 0 4.7-.1 9.6-.3 6.9-.1 9.8-.7 11.9-2.1 2.2-1.4 3.4-1.6 5.1-.8 4.3 2 14.8 2.4 23.1.9 12.8-2.3 24-8.3 34.4-18.4 4.7-4.6 8.6-8.3 8.6-8.3.1 0 .4.8.6 1.8.5 1.8 4.4 1.9 80.9 3.1 55.5.9 88.6 1 106.9.4 14.6-.6 26.7-.9 26.9-.7s-3.5 6.2-8.3 13.3l-8.6 12.9-6.2-2.4c-6.6-2.6-10.3-3-11.3-1.4s-9.1 1.2-12.8-.6c-3.3-1.6-3.6-1.5-10.3 1.4-10.2 4.4-21.6 8-33.4 10.3-14.7 3-36.7 2.3-52-1.5-11.5-2.9-10.7-2.6-26.7-8.6-8.8-3.3-11.6-4-12.7-3.1-.8.7-1.7 4.1-2.1 8.4-2.5 27.7-4.3 115-2.4 117.3 2.1 2.6 9.7 5.9 23.9 10.7 12.1 4.1 17.6 5.5 38.5 9.9 9.8 2 41.3 1.7 51-.6 8.8-2 20.6-6.4 27.4-10.2 4.1-2.3 4.5-2.3 7.5-.8 20.4 10.2 55.7 14.6 91.5 11.3 16.5-1.5 34.3-4 36.3-5 3.2-1.7 4.2-5.3 5-17.9 1.8-26.5 1.9-41.6.4-73.5-1.5-33.8-2.3-40-5.5-39.1-10.8 3.5-19.1 4.9-30.1 5.3l-12.5.5 7.8-5.6c12.3-8.9 23-15.6 38.2-24.1l14-7.8 10.9-.3c6-.2 12.5-.9 14.5-1.4 11.5-3.4 16-4.2 28.9-5 7.9-.4 18-.6 22.5-.3s7.8.2 7.4-.3c-.4-.4-15.5-1.1-33.5-1.4l-32.7-.5 3.2-2c1.8-1.1 6.9-4 11.3-6.4 7.9-4.4 10-7.1 6.4-8.5-.9-.4-9.3 3.3-20.7 9-18.4 9.3-23.8 12.1-42.7 22.2-4.7 2.5-15.9 9.4-25 15.3-31.8 20.6-42.3 25.4-55.2 25.4-5.7 0-7.1-.4-9-2.2-2.1-2.1-2.1-2.6-.9-7 1.7-6.6 16.8-29 26-38.6 9.7-10.1 23.3-20.1 51.6-37.7 26.1-16.3 30-19.1 32-23 1.4-2.7 1.3-2.9-.5-3.5-4.9-1.5-20 5.6-46 21.8-16.4 10.2-30.3 20.6-40.4 30.1-3.8 3.6-7.2 6.3-7.7 6s-11.1 0-23.6.6c-15.5.8-50.8.9-109.9.4l-87.1-.7v-2.3c0-3-2-5.4-4.5-5.4-1 0-5.7 3.6-10.3 8-16.2 15.2-26.8 20.5-43.3 21.7-4.5.3-9 1.2-9.9 1.9-1.5 1-2.1.8-4-1.2-1.8-2-3.2-2.4-7.8-2.4-3 0-5.5-.4-5.5-.9 0-.6 3.1-5.6 6.9-11.3 8.2-12.4 9.4-14.5 8.6-15.8-2.2-3.6-7 2.1-19.3 23-1.3 2.2-2.9 4-3.7 4-5.7 0-23.1-8.2-28-13.2-1.7-1.7-1.8-2.1-.5-2.9 8.2-5.1 15.7-9.3 27.5-15.4 10.5-5.5 14.1-7.8 14.3-9.4.3-1.5-.2-2.1-1.7-2.1-2.6 0-26.6 12.3-36.7 18.8-7.2 4.6-8 4.9-9.6 3.6-2-1.9-8.8-15.4-8.8-17.6 0-1.1 1.8-1.9 6.3-2.7 3.4-.7 9.4-1.9 13.2-2.6 3.9-.7 11.5-1.9 17-2.5 12.7-1.5 12.7-1.5 12.3-4.2-.3-2.1-.8-2.3-5.3-2-6.7.4-27.2 3.8-36.8 6.1l-7.8 1.8-1.2-2.1c-.7-1.3-1.1-6.4-1.1-13.6.1-14.3 1.9-20.3 9.6-32.1l5.6-8.4.1-17c.5-57.4 11.7-88.1 44.4-121.9 2.1-2.2 3.7-4.8 3.7-6.2 0-2.1-.5-2.4-3.4-2.4-2.7 0-4.6 1.2-9.7 5.7m254.6 263c-.4 1-.9 27.9-1.2 59.8l-.4 58-4.7 2.2c-29.7 13.8-73.8 10.9-120.7-8l-6-2.4.2-5.4c.1-3 .6-15.8 1.2-28.4.6-12.7 1.4-35 1.8-49.8.3-14.7.7-26.7.9-26.7.1 0 4.2 1.5 9 3.4 20.1 7.8 44.5 12.3 60.8 11.2 17.2-1.1 36.3-5.9 52-13.1 6.4-2.9 8.1-3.1 7.1-.8m10 56.8c0 48.3-.2 58.4-1.3 58-.8-.3-2.3-.5-3.4-.5-2.1 0-2.1-.2-1.5-19.2.4-10.6.7-36.7.7-58.1V670h5.5zm15-56.3c4.4 2.2 4.5 2.3 4.5 7 0 5.2 1.6 9.2 4.8 12.1 2.3 2.1 11.2 4.7 16.2 4.7 5.8 0 17.1-3.5 25.8-7.9l8.3-4.1 8.7 1c10.2 1.1 23.2-.5 34.4-4.4q6.75-2.4 6.9-1.2c0 .6.2 2.2.4 3.6.9 8.7 1.6 63.3 1 85-.7 25.8-.7 25.8-3 26.4-4.7 1.2-34.6 3.6-50 4-24.1.6-44.7-1.5-58.7-6l-4.6-1.5-.6-56.2c-.3-30.9-.8-58.1-1.2-60.5-.7-5 .2-5.3 7.1-2"/><path d="M450.9 715.3c-4.6 6.8-6.1 8.2-8.5 8.5-5.7.5-24.5 3.4-27.4 4.2-2.7.8-3 .6-3-1.6 0-1.6-.6-2.4-1.7-2.4-4.2.1-4.6 1.3-4 11.1.4 5.2.7 9.5.7 9.6 0 .2 1.4.3 3 .3 2.9 0 3-.1 3-5 0-4.8.1-4.9 3.8-5.9 12.3-3.3 33-5.5 38.3-4.1 4.7 1.3 6.3 3.9 5.4 9.1-.4 2.1-.3 3.9.2 3.9.4 0 1.8.3 2.9.6 1.7.5 2.4-.1 3.3-2.7.6-1.7 1.1-4.9 1.1-7 0-4.6-4-8.4-10-9.4-2.2-.4-4-1-4-1.4 0-.3 1.3-2.2 2.8-4.1s3.5-4.7 4.5-6.2c1.6-2.5 1.5-2.7-.8-4.2-1.3-.9-2.8-1.6-3.2-1.6s-3.3 3.7-6.4 8.3"/><path d="M432.5 709.4c-1.9 1.4-1.9 1.5.4 5.8 3.3 5.9 3.5 6.1 6.4 4.7l2.6-1.2-2.9-5.1c-3.4-5.8-3.9-6.1-6.5-4.2m-15.6 3.9c-1.5 1.1-1.3 1.7 1.3 6.4 2.7 4.9 3.1 5.1 5.4 4.1 3-1.4 3-1.7-.3-7.3-2.9-4.7-3.8-5.2-6.4-3.2m14.6 25.4c-7 1-10.5 2.4-10.5 4.1 0 3.2 1.5 4.4 4.2 3.3 4.7-1.8 19-3.3 20.1-2.2 1.5 1.5-1.7 4.8-7.5 7.7-2.7 1.3-4.8 3-4.8 3.8 0 1.3-11.4 2.6-22.7 2.6-4.2 0-4.3.1-4.3 3.1v3.2l8.3-.6c4.5-.4 11.6-1 15.8-1.3 7.4-.7 7.6-.6 8.2 1.7 2.1 7.8 0 9.7-8.5 7.6-3.4-.9-6.6-1.4-7-1.1-.8.5-1.2 5.4-.4 5.4.2 0 3.2.7 6.5 1.5 8.5 2.2 13.6.8 15.8-4.3 1-2.3 1.3-5.1.9-7.8l-.5-4.2 12.4-.7 12.5-.7v-6.1l-7.2.7c-4 .4-10.2.9-13.8 1.2l-6.5.6 3.5-2.9c5.9-4.8 7-6.2 7-9.1 0-5-1.2-5.7-10.2-5.8-4.6-.1-9.6 0-11.3.3m127.5-27c-5.9.6-21.3 3.2-25.2 4.3-3.3 1-3.8 1.5-3.8 4.2 0 3.5-.5 3.5 13.5.3 3.9-.8 12-1.8 18.2-2.2 9.5-.5 11.6-.3 13.7 1.1 5.4 3.5 6.9 9.8 5.6 23.6-1.4 14.8-3.1 22.7-5.3 25.1-1.7 1.8-2.9 2.1-8.8 1.7-6.4-.3-6.8-.2-7.2 2-.6 3 2.3 4.2 10.4 4.2 7 0 11.3-1.9 13.3-5.8 2.1-4.2 3.6-14.4 4.3-29.2.7-16.1-.2-20.5-5.2-24.9-5.3-4.6-11-5.7-23.5-4.4"/><path d="M537.1 729.7c-1.7 3.7-1.5 4 4.1 5.9 2.9.9 7.6 2.7 10.4 4l5.2 2.3 1.1-3.1c.6-1.7 1-3.2.9-3.2-.2-.1-4.9-2-10.4-4.2l-10.2-4.2zm21.4 18c-2.2 1.5-9.9 6.1-17.2 10.3l-13.2 7.7 1.6 2.4c.9 1.3 1.7 2.5 1.9 2.7.1.3 22.2-12.4 33.1-19 3.2-1.9 3.2-2 1.7-4.4-2-3-2.9-2.9-7.9.3m-65-333.3c-8.2 4.1-10.6 9.7-6.3 15.1 2.1 2.7 2.1 2.7 13.2 2.4 11.9-.4 15-1.5 18.1-6.3 4-6-2.6-11.5-14.8-12.2-5.1-.3-8.1 0-10.2 1m-189.7 81.3c-2 1.6-5 5.2-6.8 8.1-2.7 4.5-3.2 6.3-3.1 11.4 0 3.3.6 6.7 1.2 7.4 2.3 2.8 10.3 1 14.9-3.5 3.1-2.9 8-13.5 8-17.2 0-8.4-7.3-11.5-14.2-6.2m116.5 14.4c-.7.7-1.3 2.8-1.3 4.5 0 5.3-1.7 8.2-5.7 10.1-2.9 1.4-3.8 2.4-3.8 4.3 0 2.1.5 2.5 3.5 2.8 2.1.1 4.7-.5 6.6-1.7 3.1-1.9 6.4-7.4 6.4-10.8 0-1.6.9-1.8 9.3-1.8 10.8-.1 14-1.3 13.5-5.3-.3-2.3-.7-2.7-3.3-2.4-7.1.6-17.3.6-20.5-.2-2.4-.5-3.9-.4-4.7.5m-170.5 42.6c-2.8.4-4.1 2.2-2.9 4.1.4.6 5.6 1.6 11.7 2.1 24.7 2.2 37.4 11.9 47.3 36.2 3.9 9.7 6.2 11.9 8.7 8.4 2.7-3.7-7.4-24.7-16.8-35-6.5-7.1-15.8-12.4-25.3-14.3-6.2-1.3-19.1-2.2-22.7-1.5M158 617.6l-2.5 1.5 3.5-.6c3.9-.6 6.6-2.5 3.5-2.5-1.1.1-3.1.8-4.5 1.6"/></svg>