<?xml version="1.0" standalone="no"?>
<!DOCTYPE svg PUBLIC "-//W3C//DTD SVG 20010904//EN"
 "http://www.w3.org/TR/2001/REC-SVG-20010904/DTD/svg10.dtd">
<svg version="1.0" xmlns="http://www.w3.org/2000/svg"
 width="512.000000pt" height="512.000000pt" viewBox="0 0 512.000000 512.000000"
 preserveAspectRatio="xMidYMid meet">
<metadata>
Created by potrace 1.11, written by Peter Selinger 2001-2013
</metadata>
<g transform="translate(0.000000,512.000000) scale(0.100000,-0.100000)"
fill="#000000" stroke="none">
<path d="M2278 4836 c-1 -2 -57 -6 -123 -10 -244 -12 -393 -41 -635 -124 -763
-260 -1350 -951 -1484 -1747 -8 -49 -18 -106 -21 -125 -12 -60 -14 -430 -4
-520 83 -722 523 -1388 1144 -1731 487 -268 978 -349 1540 -253 428 73 877
314 1200 644 224 229 409 520 510 803 24 68 35 83 72 110 314 226 487 454 603
796 40 117 41 123 23 136 -10 8 -21 15 -25 15 -4 0 -107 49 -230 108 -123 59
-256 123 -296 142 l-73 35 -20 70 c-82 286 -242 592 -425 813 -66 78 -256 268
-329 328 -90 73 -277 195 -385 251 -148 76 -386 167 -496 189 -7 1 -43 9 -81
18 -38 8 -94 18 -124 21 -30 4 -60 8 -68 11 -8 2 -66 7 -130 10 -64 3 -121 7
-128 9 -6 2 -13 2 -15 1z"/>
</g>
</svg>
