<svg width="1200" height="630" viewBox="0 0 1200 630" xmlns="http://www.w3.org/2000/svg"><rect x="0" y="0" width="1200" height="630" fill="#fefbfb"/><defs><clipPath id="satori_bc-id-0"><path x="105" y="39" width="1056" height="504" d="M109,39 h1048 a4,4 0 0 1 4,4 v496 a4,4 0 0 1 -4,4 h-1048 a4,4 0 0 1 -4,-4 v-496 a4,4 0 0 1 4,-4"/></clipPath></defs><g opacity="0.9"><path x="105" y="39" width="1056" height="504" fill="#ecebeb" d="M109,39 h1048 a4,4 0 0 1 4,4 v496 a4,4 0 0 1 -4,4 h-1048 a4,4 0 0 1 -4,-4 v-496 a4,4 0 0 1 4,-4"/><path width="1056" height="504" clip-path="url(#satori_bc-id-0)" fill="none" stroke="#000" stroke-width="8" d="M106.172,40.172 A4,4 0 0 1 109,39 h1048 a4,4 0 0 1 4,4 v496 a4,4 0 0 1 -4,4 h-1048 a4,4 0 0 1 -4,-4 v-496 A4,4 0 0 1 106.172,40.172"/></g><defs><clipPath id="satori_bc-id-1"><path x="72" y="63" width="1056" height="504" d="M76,63 h1048 a4,4 0 0 1 4,4 v496 a4,4 0 0 1 -4,4 h-1048 a4,4 0 0 1 -4,-4 v-496 a4,4 0 0 1 4,-4"/></clipPath></defs><path x="72" y="63" width="1056" height="504" fill="#fefbfb" d="M76,63 h1048 a4,4 0 0 1 4,4 v496 a4,4 0 0 1 -4,4 h-1048 a4,4 0 0 1 -4,-4 v-496 a4,4 0 0 1 4,-4"/><path width="1056" height="504" clip-path="url(#satori_bc-id-1)" fill="none" stroke="#000" stroke-width="8" d="M73.172,64.172 A4,4 0 0 1 76,63 h1048 a4,4 0 0 1 4,4 v496 a4,4 0 0 1 -4,4 h-1048 a4,4 0 0 1 -4,-4 v-496 A4,4 0 0 1 73.172,64.172"/><clipPath id="satori_cp-id-1-0-0"><rect x="128" y="103" width="648" height="94"/></clipPath><mask id="satori_om-id-1-0-0"><rect x="128" y="103" width="648" height="94" fill="#fff"/></mask><path fill="black" d="M169.5 141.6L155 141.6L155 183.0L144.2 183.0L144.2 141.6L129.7 141.6L129.7 132.7L169.5 132.7L169.5 141.6ZM176.5 183.0L176.5 174.7L185.1 174.7L185.1 154.1L176.5 154.1L176.5 145.8L195.8 145.8L195.8 156.3L196.3 156.3Q196.8 154.3 197.7 152.4Q198.6 150.5 200.0 149.0Q201.4 147.5 203.4 146.7Q205.4 145.8 208.1 145.8L208.1 145.8L211.7 145.8L211.7 155.6L203.7 155.6Q199.8 155.6 197.8 157.9Q195.8 160.3 195.8 163.7L195.8 163.7L195.8 174.7L208.0 174.7L208.0 183.0L176.5 183.0ZM255.6 183.0L249.5 183.0Q246.2 183.0 244.1 181.3Q242.1 179.6 241.8 176.4L241.8 176.4L241.4 176.4Q240.4 180.1 237.4 181.9Q234.4 183.8 230.1 183.8L230.1 183.8Q224.7 183.8 221.4 180.9Q218.1 178.0 218.1 172.7L218.1 172.7Q218.1 166.9 222.4 164.1Q226.6 161.3 234.8 161.3L234.8 161.3L240.8 161.3L240.8 159.4Q240.8 156.1 239.3 154.4Q237.7 152.7 234.1 152.7L234.1 152.7Q230.7 152.7 228.6 154.0Q226.5 155.3 225.0 157.4L225.0 157.4L219.2 152.2Q221.0 149.0 225.0 147.0Q229.0 144.9 235.3 144.9L235.3 144.9Q242.9 144.9 247.2 148.4Q251.5 151.9 251.5 159.0L251.5 159.0L251.5 175.2L255.6 175.2L255.6 183.0ZM234.1 176.8L234.1 176.8Q236.9 176.8 238.9 175.5Q240.8 174.1 240.8 171.5L240.8 171.5L240.8 167.0L235.1 167.0Q228.6 167.0 228.6 171.4L228.6 171.4L228.6 172.9Q228.6 174.8 230.1 175.8Q231.6 176.8 234.1 176.8ZM285.5 183.0L272.9 183.0L259.5 145.8L270.8 145.8L275.6 161.7L279.1 174.1L279.7 174.1L283.2 161.7L288.1 145.8L298.9 145.8L285.5 183.0ZM324.7 141.0L324.7 141.0Q321.1 141.0 319.7 139.6Q318.3 138.1 318.3 136.0L318.3 136.0L318.3 133.9Q318.3 131.8 319.7 130.3Q321.1 128.9 324.7 128.9L324.7 128.9Q328.3 128.9 329.7 130.3Q331.1 131.8 331.1 133.9L331.1 133.9L331.1 136.0Q331.1 138.1 329.7 139.6Q328.3 141.0 324.7 141.0ZM307.6 183.0L307.6 174.7L319.4 174.7L319.4 154.1L307.6 154.1L307.6 145.8L330.0 145.8L330.0 174.7L341.0 174.7L341.0 183.0L307.6 183.0ZM365.2 183.8L365.2 183.8Q359.0 183.8 354.4 181.9Q349.8 180.1 347.5 176.8L347.5 176.8L353.5 171.3Q355.7 173.7 358.6 175.0Q361.5 176.3 365.2 176.3L365.2 176.3Q368.4 176.3 370.2 175.4Q372.0 174.4 372.0 172.4L372.0 172.4Q372.0 170.8 370.8 170.2Q369.6 169.6 367.4 169.2L367.4 169.2L361.4 168.3Q358.9 167.9 356.7 167.1Q354.6 166.4 353.0 165.1Q351.4 163.8 350.5 161.9Q349.5 160.1 349.5 157.4L349.5 157.4Q349.5 151.6 354.0 148.2Q358.5 144.9 366.5 144.9L366.5 144.9Q372.0 144.9 375.9 146.4Q379.7 147.9 382.0 150.6L382.0 150.6L376.7 156.7Q375.0 154.9 372.4 153.6Q369.8 152.4 366.2 152.4L366.2 152.4Q360.0 152.4 360.0 156.2L360.0 156.2Q360.0 157.8 361.2 158.4Q362.4 159.0 364.6 159.4L364.6 159.4L370.5 160.3Q373.0 160.7 375.2 161.5Q377.3 162.2 379.0 163.5Q380.6 164.8 381.5 166.7Q382.4 168.6 382.4 171.2L382.4 171.2Q382.4 177.0 377.9 180.4Q373.4 183.8 365.2 183.8Z M453.2 183.8L453.2 183.8Q443.1 183.8 438.2 177.0Q433.4 170.2 433.4 157.8L433.4 157.8Q433.4 145.4 438.2 138.6Q443.1 131.8 453.2 131.8L453.2 131.8Q457.0 131.8 460.0 132.9Q463.0 133.9 465.2 135.8Q467.3 137.7 468.7 140.3Q470.1 143.0 470.9 146.3L470.9 146.3L460.9 148.8Q460.4 147.0 459.8 145.4Q459.3 143.9 458.4 142.8Q457.5 141.8 456.1 141.2Q454.8 140.5 452.9 140.5L452.9 140.5Q448.5 140.5 446.7 144.0Q444.9 147.4 444.9 153.4L444.9 153.4L444.9 162.2Q444.9 168.3 446.7 171.7Q448.5 175.1 452.9 175.1L452.9 175.1Q456.7 175.1 458.4 172.8Q460.1 170.5 460.9 166.9L460.9 166.9L470.9 169.3Q470.1 172.7 468.7 175.3Q467.3 178.0 465.2 179.9Q463.0 181.8 460.0 182.8Q457.0 183.8 453.2 183.8ZM511.4 183.0L479.0 183.0L479.0 175.0L489.8 175.0L489.8 140.7L479.0 140.7L479.0 132.7L511.4 132.7L511.4 140.7L500.6 140.7L500.6 175.0L511.4 175.0L511.4 183.0ZM557.7 183.0L519.1 183.0L519.1 126.8L557.7 126.8L557.7 183.0ZM526.3 134.0L526.3 175.8L550.5 175.8L550.5 134.0L526.3 134.0ZM600.9 183.0L562.3 183.0L562.3 126.8L600.9 126.8L600.9 183.0ZM569.5 134.0L569.5 175.8L593.7 175.8L593.7 134.0L569.5 134.0ZM607.9 183.0L607.9 129.7L618.5 129.7L618.5 152.6L619.0 152.6Q619.6 151.0 620.6 149.6Q621.5 148.2 622.8 147.2Q624.2 146.2 625.9 145.5Q627.7 144.9 629.9 144.9L629.9 144.9Q632.6 144.9 634.8 145.8Q637.0 146.7 638.6 148.5Q640.2 150.3 641.1 152.9Q642.0 155.5 642.0 158.9L642.0 158.9L642.0 183.0L631.4 183.0L631.4 160.3Q631.4 153.1 625.1 153.1L625.1 153.1Q623.9 153.1 622.7 153.5Q621.5 153.8 620.6 154.5Q619.6 155.2 619.1 156.2Q618.5 157.2 618.5 158.5L618.5 158.5L618.5 183.0L607.9 183.0ZM669.0 183.8L669.0 183.8Q659.6 183.8 654.8 178.6Q650.0 173.4 650.0 164.5L650.0 164.5Q650.0 160.0 651.3 156.3Q652.5 152.7 654.9 150.2Q657.2 147.6 660.5 146.3Q663.9 144.9 668.1 144.9L668.1 144.9Q672.2 144.9 675.6 146.3Q678.9 147.6 681.2 150.0Q683.5 152.5 684.7 156.0Q686.0 159.5 686.0 163.8L686.0 163.8L686.0 167.0L660.6 167.0L660.6 167.6Q660.6 171.2 662.8 173.4Q665.0 175.6 669.4 175.6L669.4 175.6Q672.7 175.6 675.1 174.3Q677.4 173.1 679.2 171.0L679.2 171.0L684.9 177.3Q682.8 179.9 678.9 181.9Q675.0 183.8 669.0 183.8ZM668.1 152.6L668.1 152.6Q664.7 152.6 662.6 154.7Q660.6 156.8 660.6 160.4L660.6 160.4L660.6 161.0L675.6 161.0L675.6 160.4Q675.6 156.7 673.6 154.7Q671.6 152.6 668.1 152.6ZM702.5 183.0L691.3 183.0L705.2 164.1L692.2 145.8L704.4 145.8L708.3 151.8L711.3 156.6L711.9 156.6L715.0 151.8L719.0 145.8L730.2 145.8L717.2 163.5L731.1 183.0L718.9 183.0L714.2 176.0L711.0 171.0L710.4 171.0L707.2 176.0L702.5 183.0ZM754.4 183.8L754.4 183.8Q750.1 183.8 746.6 182.5Q743.2 181.2 740.8 178.6Q738.3 176.1 737.0 172.5Q735.8 168.9 735.8 164.4L735.8 164.4Q735.8 159.8 737.0 156.2Q738.3 152.6 740.8 150.1Q743.2 147.6 746.6 146.3Q750.1 144.9 754.4 144.9L754.4 144.9Q758.7 144.9 762.2 146.3Q765.6 147.6 768.0 150.1Q770.5 152.6 771.8 156.2Q773.0 159.8 773.0 164.4L773.0 164.4Q773.0 168.9 771.8 172.5Q770.5 176.1 768.0 178.6Q765.6 181.2 762.2 182.5Q758.7 183.8 754.4 183.8ZM754.4 175.9L754.4 175.9Q758.0 175.9 760.0 173.7Q762.0 171.4 762.0 167.3L762.0 167.3L762.0 161.4Q762.0 157.3 760.0 155.1Q758.0 152.9 754.4 152.9L754.4 152.9Q750.8 152.9 748.8 155.1Q746.8 157.3 746.8 161.4L746.8 161.4L746.8 167.3Q746.8 171.4 748.8 173.7Q750.8 175.9 754.4 175.9Z " clip-path="url(#satori_cp-id-1-0-0)" mask="url(#satori_om-id-1-0-0)"/><path fill="black" d="M130.7 520.3L130.7 499.6L132.9 499.6L132.9 508.2L133.0 508.2Q134.4 505.5 137.5 505.5L137.5 505.5Q140.1 505.5 141.6 507.5Q143.1 509.5 143.1 513.0L143.1 513.0Q143.1 516.6 141.6 518.6Q140.1 520.6 137.5 520.6L137.5 520.6Q134.4 520.6 133.0 517.9L133.0 517.9L132.9 517.9L132.9 520.3L130.7 520.3ZM136.6 518.6L136.6 518.6Q138.6 518.6 139.6 517.4Q140.7 516.2 140.7 514.3L140.7 514.3L140.7 511.8Q140.7 509.9 139.6 508.7Q138.6 507.5 136.6 507.5L136.6 507.5Q135.8 507.5 135.2 507.7Q134.5 507.9 134.0 508.2Q133.5 508.6 133.2 509.2Q132.9 509.7 132.9 510.4L132.9 510.4L132.9 515.7Q132.9 516.4 133.2 516.9Q133.5 517.5 134.0 517.8Q134.5 518.2 135.2 518.4Q135.8 518.6 136.6 518.6ZM155.4 511.9L157.9 505.8L160.1 505.8L152.9 523.4Q152.7 524.1 152.4 524.5Q152.1 525.0 151.7 525.3Q151.2 525.6 150.7 525.7Q150.1 525.9 149.3 525.9L149.3 525.9L147.1 525.9L147.1 524.0L150.5 524.0L152.1 520.0L146.3 505.8L148.6 505.8L151.0 511.9L153.2 517.4L153.3 517.4L155.4 511.9Z "/><clipPath id="satori_cp-id-1-0-1-0-2"><rect x="178" y="489" width="201" height="36"/></clipPath><mask id="satori_om-id-1-0-1-0-2"><rect x="178" y="489" width="201" height="36" fill="#fff"/></mask><path fill="black" d="M194.7 520.1L190.2 520.1L188.9 515.4L183.6 515.4L182.4 520.1L178.1 520.1L183.4 500.5L189.4 500.5L194.7 520.1ZM188.3 512.0L186.4 504.6L186.2 504.6L184.3 512.0L188.3 512.0ZM199.0 520.1L195.6 520.1L195.6 505.6L199.0 505.6L199.0 507.8L199.2 507.8Q199.5 506.8 200.1 506.0Q200.8 505.3 201.9 505.3L201.9 505.3Q204.0 505.3 204.5 507.8L204.5 507.8L204.7 507.8Q204.8 507.3 205.1 506.8Q205.3 506.4 205.7 506.0Q206.1 505.7 206.6 505.5Q207.1 505.3 207.7 505.3L207.7 505.3Q210.8 505.3 210.8 509.8L210.8 509.8L210.8 520.1L207.4 520.1L207.4 510.2Q207.4 509.2 207.1 508.8Q206.7 508.4 206.2 508.4L206.2 508.4Q205.6 508.4 205.3 508.7Q204.9 509.1 204.9 509.8L204.9 509.8L204.9 520.1L201.5 520.1L201.5 510.2Q201.5 509.2 201.2 508.8Q200.9 508.4 200.3 508.4L200.3 508.4Q199.8 508.4 199.4 508.7Q199.0 509.1 199.0 509.8L199.0 509.8L199.0 520.1ZM227.6 520.1L225.2 520.1Q223.9 520.1 223.2 519.4Q222.4 518.8 222.2 517.5L222.2 517.5L222.1 517.5Q221.7 519.0 220.5 519.7Q219.4 520.4 217.7 520.4L217.7 520.4Q215.6 520.4 214.3 519.3Q213.1 518.2 213.1 516.1L213.1 516.1Q213.1 513.8 214.7 512.8Q216.4 511.7 219.6 511.7L219.6 511.7L221.9 511.7L221.9 510.9Q221.9 509.6 221.3 509.0Q220.7 508.3 219.2 508.3L219.2 508.3Q217.9 508.3 217.1 508.8Q216.3 509.3 215.7 510.2L215.7 510.2L213.4 508.1Q214.2 506.9 215.7 506.1Q217.3 505.3 219.7 505.3L219.7 505.3Q222.7 505.3 224.4 506.7Q226.0 508.0 226.0 510.8L226.0 510.8L226.0 517.1L227.6 517.1L227.6 520.1ZM219.3 517.7L219.3 517.7Q220.4 517.7 221.1 517.2Q221.9 516.6 221.9 515.6L221.9 515.6L221.9 513.9L219.7 513.9Q217.1 513.9 217.1 515.6L217.1 515.6L217.1 516.2Q217.1 516.9 217.7 517.3Q218.3 517.7 219.3 517.7ZM243.4 520.1L230.2 520.1L230.2 516.6L238.3 508.9L230.5 508.9L230.5 505.6L243.1 505.6L243.1 509.1L235.0 516.9L243.4 516.9L243.4 520.1ZM254.5 503.8L254.5 503.8Q253.1 503.8 252.6 503.2Q252.0 502.6 252.0 501.8L252.0 501.8L252.0 501.0Q252.0 500.2 252.6 499.6Q253.1 499.1 254.5 499.1L254.5 499.1Q255.9 499.1 256.4 499.6Q257.0 500.2 257.0 501.0L257.0 501.0L257.0 501.8Q257.0 502.6 256.4 503.2Q255.9 503.8 254.5 503.8ZM247.8 520.1L247.8 516.9L252.4 516.9L252.4 508.9L247.8 508.9L247.8 505.6L256.6 505.6L256.6 516.9L260.8 516.9L260.8 520.1L247.8 520.1ZM268.0 520.1L263.8 520.1L263.8 505.6L268.0 505.6L268.0 508.3L268.1 508.3Q268.4 507.7 268.7 507.1Q269.1 506.6 269.6 506.2Q270.1 505.8 270.8 505.5Q271.5 505.3 272.4 505.3L272.4 505.3Q273.4 505.3 274.3 505.7Q275.2 506.0 275.8 506.7Q276.4 507.4 276.7 508.4Q277.1 509.4 277.1 510.7L277.1 510.7L277.1 520.1L272.9 520.1L272.9 511.3Q272.9 508.5 270.5 508.5L270.5 508.5Q270.0 508.5 269.6 508.6Q269.1 508.8 268.7 509.0Q268.4 509.3 268.2 509.7Q268.0 510.1 268.0 510.6L268.0 510.6L268.0 520.1ZM295.1 521.5L295.1 521.5Q295.1 523.8 293.2 524.9Q291.3 526.0 287.1 526.0L287.1 526.0Q285.0 526.0 283.7 525.8Q282.4 525.6 281.6 525.1Q280.8 524.7 280.4 524.0Q280.1 523.4 280.1 522.7L280.1 522.7Q280.1 521.5 280.8 520.8Q281.6 520.2 282.9 519.9L282.9 519.9L282.9 519.7Q282.0 519.4 281.4 518.9Q280.9 518.4 280.9 517.4L280.9 517.4Q280.9 516.4 281.6 515.9Q282.3 515.4 283.5 515.1L283.5 515.1L283.5 514.9Q282.2 514.3 281.5 513.2Q280.8 512.1 280.8 510.5L280.8 510.5Q280.8 509.2 281.2 508.2Q281.7 507.3 282.5 506.6Q283.3 506.0 284.5 505.6Q285.6 505.3 287.0 505.3L287.0 505.3Q288.4 505.3 289.6 505.6L289.6 505.6L289.6 504.8Q289.6 504.0 290.2 503.4Q290.8 502.9 291.8 502.9L291.8 502.9L294.3 502.9L294.3 505.9L290.9 505.9L290.9 506.1Q292.0 506.8 292.7 507.8Q293.4 508.9 293.4 510.5L293.4 510.5Q293.4 511.7 292.9 512.7Q292.5 513.6 291.6 514.3Q290.8 514.9 289.6 515.3Q288.5 515.6 287.0 515.6L287.0 515.6Q286.4 515.6 285.8 515.5Q285.2 515.5 284.7 515.3L284.7 515.3Q284.4 515.5 284.2 515.8Q284.0 516.0 284.0 516.4L284.0 516.4Q284.0 516.7 284.1 516.9Q284.3 517.1 284.6 517.2Q284.9 517.3 285.3 517.3Q285.7 517.4 286.1 517.4L286.1 517.4L289.4 517.4Q290.9 517.4 292.0 517.7Q293.1 518.0 293.8 518.6Q294.5 519.1 294.8 519.9Q295.1 520.6 295.1 521.5ZM291.2 521.9L291.2 521.9Q291.2 521.3 290.8 521.0Q290.3 520.7 289.0 520.7L289.0 520.7L284.1 520.7Q283.5 521.1 283.5 521.8L283.5 521.8Q283.5 522.5 284.1 522.9Q284.7 523.4 286.1 523.4L286.1 523.4L288.5 523.4Q289.9 523.4 290.6 523.0Q291.2 522.6 291.2 521.9ZM287.0 513.0L287.0 513.0Q288.3 513.0 288.9 512.4Q289.4 511.7 289.4 510.8L289.4 510.8L289.4 510.1Q289.4 509.2 288.9 508.6Q288.3 507.9 287.0 507.9L287.0 507.9Q285.8 507.9 285.2 508.6Q284.7 509.2 284.7 510.1L284.7 510.1L284.7 510.8Q284.7 511.7 285.2 512.4Q285.8 513.0 287.0 513.0Z M321.2 520.4L321.2 520.4Q317.3 520.4 315.4 517.8Q313.5 515.1 313.5 510.3L313.5 510.3Q313.5 505.5 315.4 502.9Q317.3 500.2 321.2 500.2L321.2 500.2Q322.8 500.2 323.9 500.6Q325.1 501.0 325.9 501.8Q326.8 502.5 327.3 503.5Q327.9 504.6 328.2 505.8L328.2 505.8L324.2 506.8Q324.1 506.1 323.9 505.5Q323.6 504.9 323.3 504.5Q322.9 504.1 322.4 503.8Q321.9 503.6 321.2 503.6L321.2 503.6Q319.5 503.6 318.7 504.9Q318.0 506.3 318.0 508.6L318.0 508.6L318.0 512.0Q318.0 514.4 318.7 515.7Q319.5 517.0 321.2 517.0L321.2 517.0Q322.6 517.0 323.3 516.1Q323.9 515.2 324.2 513.8L324.2 513.8L328.2 514.8Q327.9 516.1 327.3 517.1Q326.8 518.2 325.9 518.9Q325.1 519.6 323.9 520.0Q322.8 520.4 321.2 520.4ZM331.0 520.1L331.0 499.4L335.2 499.4L335.2 508.3L335.3 508.3Q335.6 507.7 335.9 507.1Q336.3 506.6 336.8 506.2Q337.3 505.8 338.0 505.5Q338.7 505.3 339.6 505.3L339.6 505.3Q340.6 505.3 341.5 505.7Q342.4 506.0 343.0 506.7Q343.6 507.4 343.9 508.4Q344.3 509.4 344.3 510.7L344.3 510.7L344.3 520.1L340.1 520.1L340.1 511.3Q340.1 508.5 337.7 508.5L337.7 508.5Q337.2 508.5 336.8 508.6Q336.3 508.8 335.9 509.0Q335.6 509.3 335.4 509.7Q335.2 510.1 335.2 510.6L335.2 510.6L335.2 520.1L331.0 520.1ZM354.8 520.4L354.8 520.4Q351.2 520.4 349.3 518.4Q347.4 516.4 347.4 512.9L347.4 512.9Q347.4 511.2 347.9 509.7Q348.4 508.3 349.3 507.3Q350.2 506.3 351.5 505.8Q352.8 505.3 354.4 505.3L354.4 505.3Q356.1 505.3 357.3 505.8Q358.6 506.3 359.5 507.3Q360.4 508.2 360.9 509.6Q361.4 511.0 361.4 512.6L361.4 512.6L361.4 513.9L351.5 513.9L351.5 514.1Q351.5 515.5 352.4 516.4Q353.3 517.2 354.9 517.2L354.9 517.2Q356.2 517.2 357.1 516.7Q358.1 516.3 358.7 515.4L358.7 515.4L361.0 517.9Q360.1 518.9 358.6 519.7Q357.1 520.4 354.8 520.4ZM354.5 508.3L354.5 508.3Q353.1 508.3 352.3 509.1Q351.5 509.9 351.5 511.3L351.5 511.3L351.5 511.6L357.3 511.6L357.3 511.3Q357.3 509.9 356.6 509.1Q355.8 508.3 354.5 508.3ZM368.8 520.1L364.6 520.1L364.6 505.6L368.8 505.6L368.8 508.3L368.9 508.3Q369.2 507.7 369.5 507.1Q369.9 506.6 370.4 506.2Q370.9 505.8 371.6 505.5Q372.3 505.3 373.2 505.3L373.2 505.3Q374.2 505.3 375.1 505.7Q376.0 506.0 376.6 506.7Q377.2 507.4 377.5 508.4Q377.9 509.4 377.9 510.7L377.9 510.7L377.9 520.1L373.7 520.1L373.7 511.3Q373.7 508.5 371.3 508.5L371.3 508.5Q370.8 508.5 370.4 508.6Q369.9 508.8 369.5 509.0Q369.2 509.3 369.0 509.7Q368.8 510.1 368.8 510.6L368.8 510.6L368.8 520.1Z " clip-path="url(#satori_cp-id-1-0-1-0-2)" mask="url(#satori_om-id-1-0-1-0-2)"/><clipPath id="satori_cp-id-1-0-1-1"><rect x="954" y="489" width="118" height="36"/></clipPath><mask id="satori_om-id-1-0-1-1"><rect x="954" y="489" width="118" height="36" fill="#fff"/></mask><path fill="black" d="M970.7 520.1L966.2 520.1L964.9 515.4L959.6 515.4L958.4 520.1L954.1 520.1L959.4 500.5L965.4 500.5L970.7 520.1ZM964.3 512.0L962.4 504.6L962.2 504.6L960.3 512.0L964.3 512.0ZM975.0 520.1L971.6 520.1L971.6 505.6L975.0 505.6L975.0 507.8L975.2 507.8Q975.5 506.8 976.1 506.0Q976.8 505.3 977.9 505.3L977.9 505.3Q980.0 505.3 980.5 507.8L980.5 507.8L980.7 507.8Q980.8 507.3 981.1 506.8Q981.3 506.4 981.7 506.0Q982.1 505.7 982.6 505.5Q983.1 505.3 983.7 505.3L983.7 505.3Q986.8 505.3 986.8 509.8L986.8 509.8L986.8 520.1L983.4 520.1L983.4 510.2Q983.4 509.2 983.1 508.8Q982.7 508.4 982.2 508.4L982.2 508.4Q981.6 508.4 981.3 508.7Q980.9 509.1 980.9 509.8L980.9 509.8L980.9 520.1L977.5 520.1L977.5 510.2Q977.5 509.2 977.2 508.8Q976.9 508.4 976.3 508.4L976.3 508.4Q975.8 508.4 975.4 508.7Q975.0 509.1 975.0 509.8L975.0 509.8L975.0 520.1ZM1003.6 520.1L1001.2 520.1Q999.9 520.1 999.2 519.4Q998.4 518.8 998.2 517.5L998.2 517.5L998.1 517.5Q997.7 519.0 996.5 519.7Q995.4 520.4 993.7 520.4L993.7 520.4Q991.6 520.4 990.3 519.3Q989.1 518.2 989.1 516.1L989.1 516.1Q989.1 513.8 990.7 512.8Q992.4 511.7 995.6 511.7L995.6 511.7L997.9 511.7L997.9 510.9Q997.9 509.6 997.3 509.0Q996.7 508.3 995.2 508.3L995.2 508.3Q993.9 508.3 993.1 508.8Q992.3 509.3 991.7 510.2L991.7 510.2L989.4 508.1Q990.2 506.9 991.7 506.1Q993.3 505.3 995.7 505.3L995.7 505.3Q998.7 505.3 1000.4 506.7Q1002.0 508.0 1002.0 510.8L1002.0 510.8L1002.0 517.1L1003.6 517.1L1003.6 520.1ZM995.3 517.7L995.3 517.7Q996.4 517.7 997.1 517.2Q997.9 516.6 997.9 515.6L997.9 515.6L997.9 513.9L995.7 513.9Q993.1 513.9 993.1 515.6L993.1 515.6L993.1 516.2Q993.1 516.9 993.7 517.3Q994.3 517.7 995.3 517.7ZM1019.4 520.1L1006.2 520.1L1006.2 516.6L1014.3 508.9L1006.5 508.9L1006.5 505.6L1019.1 505.6L1019.1 509.1L1011.0 516.9L1019.4 516.9L1019.4 520.1ZM1030.5 503.8L1030.5 503.8Q1029.1 503.8 1028.5 503.2Q1028.0 502.6 1028.0 501.8L1028.0 501.8L1028.0 501.0Q1028.0 500.2 1028.5 499.6Q1029.1 499.1 1030.5 499.1L1030.5 499.1Q1031.9 499.1 1032.4 499.6Q1033.0 500.2 1033.0 501.0L1033.0 501.0L1033.0 501.8Q1033.0 502.6 1032.4 503.2Q1031.9 503.8 1030.5 503.8ZM1023.8 520.1L1023.8 516.9L1028.4 516.9L1028.4 508.9L1023.8 508.9L1023.8 505.6L1032.6 505.6L1032.6 516.9L1036.8 516.9L1036.8 520.1L1023.8 520.1ZM1044.0 520.1L1039.8 520.1L1039.8 505.6L1044.0 505.6L1044.0 508.3L1044.1 508.3Q1044.4 507.7 1044.7 507.1Q1045.1 506.6 1045.6 506.2Q1046.1 505.8 1046.8 505.5Q1047.5 505.3 1048.4 505.3L1048.4 505.3Q1049.4 505.3 1050.3 505.7Q1051.2 506.0 1051.8 506.7Q1052.4 507.4 1052.7 508.4Q1053.1 509.4 1053.1 510.7L1053.1 510.7L1053.1 520.1L1048.9 520.1L1048.9 511.3Q1048.9 508.5 1046.5 508.5L1046.5 508.5Q1046.0 508.5 1045.6 508.6Q1045.1 508.8 1044.7 509.0Q1044.4 509.3 1044.2 509.7Q1044.0 510.1 1044.0 510.6L1044.0 510.6L1044.0 520.1ZM1071.1 521.5L1071.1 521.5Q1071.1 523.8 1069.2 524.9Q1067.3 526.0 1063.1 526.0L1063.1 526.0Q1061.0 526.0 1059.7 525.8Q1058.4 525.6 1057.6 525.1Q1056.8 524.7 1056.4 524.0Q1056.1 523.4 1056.1 522.7L1056.1 522.7Q1056.1 521.5 1056.8 520.8Q1057.6 520.2 1058.9 519.9L1058.9 519.9L1058.9 519.7Q1058.0 519.4 1057.4 518.9Q1056.9 518.4 1056.9 517.4L1056.9 517.4Q1056.9 516.4 1057.6 515.9Q1058.3 515.4 1059.5 515.1L1059.5 515.1L1059.5 514.9Q1058.2 514.3 1057.5 513.2Q1056.8 512.1 1056.8 510.5L1056.8 510.5Q1056.8 509.2 1057.2 508.2Q1057.7 507.3 1058.5 506.6Q1059.3 506.0 1060.5 505.6Q1061.6 505.3 1063.0 505.3L1063.0 505.3Q1064.4 505.3 1065.6 505.6L1065.6 505.6L1065.6 504.8Q1065.6 504.0 1066.2 503.4Q1066.8 502.9 1067.8 502.9L1067.8 502.9L1070.3 502.9L1070.3 505.9L1066.9 505.9L1066.9 506.1Q1068.0 506.8 1068.7 507.8Q1069.4 508.9 1069.4 510.5L1069.4 510.5Q1069.4 511.7 1068.9 512.7Q1068.5 513.6 1067.6 514.3Q1066.8 514.9 1065.6 515.3Q1064.5 515.6 1063.0 515.6L1063.0 515.6Q1062.4 515.6 1061.8 515.5Q1061.2 515.5 1060.7 515.3L1060.7 515.3Q1060.4 515.5 1060.2 515.8Q1060.0 516.0 1060.0 516.4L1060.0 516.4Q1060.0 516.7 1060.1 516.9Q1060.3 517.1 1060.6 517.2Q1060.9 517.3 1061.3 517.3Q1061.7 517.4 1062.1 517.4L1062.1 517.4L1065.4 517.4Q1066.9 517.4 1068.0 517.7Q1069.1 518.0 1069.8 518.6Q1070.5 519.1 1070.8 519.9Q1071.1 520.6 1071.1 521.5ZM1067.2 521.9L1067.2 521.9Q1067.2 521.3 1066.8 521.0Q1066.3 520.7 1065.0 520.7L1065.0 520.7L1060.1 520.7Q1059.5 521.1 1059.5 521.8L1059.5 521.8Q1059.5 522.5 1060.1 522.9Q1060.7 523.4 1062.1 523.4L1062.1 523.4L1064.5 523.4Q1065.9 523.4 1066.6 523.0Q1067.2 522.6 1067.2 521.9ZM1063.0 513.0L1063.0 513.0Q1064.3 513.0 1064.9 512.4Q1065.4 511.7 1065.4 510.8L1065.4 510.8L1065.4 510.1Q1065.4 509.2 1064.9 508.6Q1064.3 507.9 1063.0 507.9L1063.0 507.9Q1061.8 507.9 1061.2 508.6Q1060.7 509.2 1060.7 510.1L1060.7 510.1L1060.7 510.8Q1060.7 511.7 1061.2 512.4Q1061.8 513.0 1063.0 513.0Z " clip-path="url(#satori_cp-id-1-0-1-1)" mask="url(#satori_om-id-1-0-1-1)"/></svg>