<svg width="1200" height="630" viewBox="0 0 1200 630" xmlns="http://www.w3.org/2000/svg"><rect x="0" y="0" width="1200" height="630" fill="#fefbfb"/><defs><clipPath id="satori_bc-id-0"><path x="105" y="39" width="1056" height="504" d="M109,39 h1048 a4,4 0 0 1 4,4 v496 a4,4 0 0 1 -4,4 h-1048 a4,4 0 0 1 -4,-4 v-496 a4,4 0 0 1 4,-4"/></clipPath></defs><g opacity="0.9"><path x="105" y="39" width="1056" height="504" fill="#ecebeb" d="M109,39 h1048 a4,4 0 0 1 4,4 v496 a4,4 0 0 1 -4,4 h-1048 a4,4 0 0 1 -4,-4 v-496 a4,4 0 0 1 4,-4"/><path width="1056" height="504" clip-path="url(#satori_bc-id-0)" fill="none" stroke="#000" stroke-width="8" d="M106.172,40.172 A4,4 0 0 1 109,39 h1048 a4,4 0 0 1 4,4 v496 a4,4 0 0 1 -4,4 h-1048 a4,4 0 0 1 -4,-4 v-496 A4,4 0 0 1 106.172,40.172"/></g><defs><clipPath id="satori_bc-id-1"><path x="72" y="63" width="1056" height="504" d="M76,63 h1048 a4,4 0 0 1 4,4 v496 a4,4 0 0 1 -4,4 h-1048 a4,4 0 0 1 -4,-4 v-496 a4,4 0 0 1 4,-4"/></clipPath></defs><path x="72" y="63" width="1056" height="504" fill="#fefbfb" d="M76,63 h1048 a4,4 0 0 1 4,4 v496 a4,4 0 0 1 -4,4 h-1048 a4,4 0 0 1 -4,-4 v-496 a4,4 0 0 1 4,-4"/><path width="1056" height="504" clip-path="url(#satori_bc-id-1)" fill="none" stroke="#000" stroke-width="8" d="M73.172,64.172 A4,4 0 0 1 76,63 h1048 a4,4 0 0 1 4,4 v496 a4,4 0 0 1 -4,4 h-1048 a4,4 0 0 1 -4,-4 v-496 A4,4 0 0 1 73.172,64.172"/><clipPath id="satori_cp-id-1-0-0"><rect x="128" y="103" width="648" height="94"/></clipPath><mask id="satori_om-id-1-0-0"><rect x="128" y="103" width="648" height="94" fill="#fff"/></mask><path fill="black" d="M168.9 183.0L130.3 183.0L130.3 126.8L168.9 126.8L168.9 183.0ZM137.5 134.0L137.5 175.8L161.7 175.8L161.7 134.0L137.5 134.0ZM212.1 183.0L173.5 183.0L173.5 126.8L212.1 126.8L212.1 183.0ZM180.7 134.0L180.7 175.8L204.9 175.8L204.9 134.0L180.7 134.0ZM255.3 183.0L216.7 183.0L216.7 126.8L255.3 126.8L255.3 183.0ZM223.9 134.0L223.9 175.8L248.1 175.8L248.1 134.0L223.9 134.0ZM278.4 183.8L278.4 183.8Q272.1 183.8 267.4 181.7Q262.7 179.6 259.8 176.0L259.8 176.0L266.1 169.1Q268.8 172.2 272.1 173.6Q275.4 175.0 278.8 175.0L278.8 175.0Q282.7 175.0 284.7 173.3Q286.7 171.6 286.7 168.3L286.7 168.3Q286.7 165.7 285.1 164.3Q283.6 162.9 279.9 162.4L279.9 162.4L274.7 161.5Q267.9 160.3 264.9 156.5Q261.8 152.6 261.8 147.1L261.8 147.1Q261.8 139.8 266.6 135.8Q271.4 131.8 279.9 131.8L279.9 131.8Q285.8 131.8 290.1 133.6Q294.4 135.4 297.1 138.5L297.1 138.5L290.9 145.4Q288.9 143.1 286.2 141.9Q283.4 140.6 280.0 140.6L280.0 140.6Q272.7 140.6 272.7 146.6L272.7 146.6Q272.7 149.2 274.3 150.5Q276.0 151.8 279.6 152.4L279.6 152.4L284.9 153.4Q291.0 154.4 294.3 158.0Q297.6 161.5 297.6 167.5L297.6 167.5Q297.6 171.0 296.4 174.0Q295.2 177.0 292.7 179.2Q290.3 181.4 286.7 182.6Q283.2 183.8 278.4 183.8ZM324.7 141.0L324.7 141.0Q321.1 141.0 319.7 139.6Q318.3 138.1 318.3 136.0L318.3 136.0L318.3 133.9Q318.3 131.8 319.7 130.3Q321.1 128.9 324.7 128.9L324.7 128.9Q328.3 128.9 329.7 130.3Q331.1 131.8 331.1 133.9L331.1 133.9L331.1 136.0Q331.1 138.1 329.7 139.6Q328.3 141.0 324.7 141.0ZM307.6 183.0L307.6 174.7L319.4 174.7L319.4 154.1L307.6 154.1L307.6 145.8L330.0 145.8L330.0 174.7L341.0 174.7L341.0 183.0L307.6 183.0ZM372.3 183.0L372.3 176.2L371.8 176.2Q370.4 179.6 367.8 181.7Q365.2 183.8 360.8 183.8L360.8 183.8Q357.7 183.8 355.1 182.7Q352.6 181.5 350.7 179.1Q348.9 176.8 347.9 173.1Q346.8 169.4 346.8 164.4L346.8 164.4Q346.8 159.3 347.9 155.7Q348.9 152.0 350.7 149.6Q352.6 147.2 355.1 146.1Q357.7 144.9 360.8 144.9L360.8 144.9Q363.0 144.9 364.7 145.5Q366.5 146.1 367.8 147.1Q369.1 148.1 370.1 149.5Q371.1 150.9 371.8 152.6L371.8 152.6L372.3 152.6L372.3 129.7L383.0 129.7L383.0 183.0L372.3 183.0ZM365.4 175.5L365.4 175.5Q368.2 175.5 370.2 174.2Q372.3 172.8 372.3 169.8L372.3 169.8L372.3 158.9Q372.3 156.0 370.2 154.6Q368.2 153.2 365.4 153.2L365.4 153.2Q361.8 153.2 359.8 155.4Q357.9 157.6 357.9 161.5L357.9 161.5L357.9 167.3Q357.9 171.1 359.8 173.3Q361.8 175.5 365.4 175.5ZM409.8 183.8L409.8 183.8Q400.4 183.8 395.6 178.6Q390.8 173.4 390.8 164.5L390.8 164.5Q390.8 160.0 392.1 156.3Q393.3 152.7 395.7 150.2Q398.0 147.6 401.3 146.3Q404.7 144.9 408.9 144.9L408.9 144.9Q413.0 144.9 416.4 146.3Q419.7 147.6 422.0 150.0Q424.3 152.5 425.5 156.0Q426.8 159.5 426.8 163.8L426.8 163.8L426.8 167.0L401.4 167.0L401.4 167.6Q401.4 171.2 403.6 173.4Q405.8 175.6 410.2 175.6L410.2 175.6Q413.5 175.6 415.9 174.3Q418.2 173.1 420.0 171.0L420.0 171.0L425.7 177.3Q423.6 179.9 419.7 181.9Q415.8 183.8 409.8 183.8ZM408.9 152.6L408.9 152.6Q405.5 152.6 403.4 154.7Q401.4 156.8 401.4 160.4L401.4 160.4L401.4 161.0L416.4 161.0L416.4 160.4Q416.4 156.7 414.4 154.7Q412.4 152.6 408.9 152.6ZM435.1 183.0L435.1 129.7L445.7 129.7L445.7 159.9L446.2 159.9L451.2 154.1L459.0 145.8L471.2 145.8L456.8 160.5L472.7 183.0L460.1 183.0L449.3 166.5L445.7 170.1L445.7 183.0L435.1 183.0ZM497.5 141.0L497.5 141.0Q493.9 141.0 492.5 139.6Q491.1 138.1 491.1 136.0L491.1 136.0L491.1 133.9Q491.1 131.8 492.5 130.3Q493.9 128.9 497.5 128.9L497.5 128.9Q501.1 128.9 502.5 130.3Q503.9 131.8 503.9 133.9L503.9 133.9L503.9 136.0Q503.9 138.1 502.5 139.6Q501.1 141.0 497.5 141.0ZM480.4 183.0L480.4 174.7L492.2 174.7L492.2 154.1L480.4 154.1L480.4 145.8L502.8 145.8L502.8 174.7L513.8 174.7L513.8 183.0L480.4 183.0ZM545.1 197.4L545.1 176.2L544.6 176.2Q543.2 179.6 540.6 181.7Q538.0 183.8 533.6 183.8L533.6 183.8Q530.5 183.8 527.9 182.7Q525.4 181.5 523.5 179.1Q521.7 176.8 520.7 173.1Q519.6 169.4 519.6 164.4L519.6 164.4Q519.6 159.3 520.7 155.7Q521.7 152.0 523.5 149.6Q525.4 147.2 527.9 146.1Q530.5 144.9 533.6 144.9L533.6 144.9Q535.8 144.9 537.5 145.5Q539.3 146.1 540.6 147.1Q541.9 148.1 542.9 149.5Q543.9 150.9 544.6 152.6L544.6 152.6L545.1 152.6L545.1 145.8L555.8 145.8L555.8 197.4L545.1 197.4ZM538.2 175.5L538.2 175.5Q541.0 175.5 543.0 174.2Q545.1 172.8 545.1 169.8L545.1 169.8L545.1 158.9Q545.1 156.0 543.0 154.6Q541.0 153.2 538.2 153.2L538.2 153.2Q534.6 153.2 532.6 155.4Q530.7 157.6 530.7 161.5L530.7 161.5L530.7 167.3Q530.7 171.1 532.6 173.3Q534.6 175.5 538.2 175.5ZM593.1 166.1L570.1 166.1L570.1 155.9L593.1 155.9L593.1 166.1ZM626.0 183.8L626.0 183.8Q615.9 183.8 611.0 177.0Q606.2 170.2 606.2 157.8L606.2 157.8Q606.2 145.4 611.0 138.6Q615.9 131.8 626.0 131.8L626.0 131.8Q629.8 131.8 632.8 132.9Q635.8 133.9 638.0 135.8Q640.1 137.7 641.5 140.3Q642.9 143.0 643.7 146.3L643.7 146.3L633.7 148.8Q633.2 147.0 632.6 145.4Q632.1 143.9 631.2 142.8Q630.3 141.8 628.9 141.2Q627.6 140.5 625.7 140.5L625.7 140.5Q621.3 140.5 619.5 144.0Q617.7 147.4 617.7 153.4L617.7 153.4L617.7 162.2Q617.7 168.3 619.5 171.7Q621.3 175.1 625.7 175.1L625.7 175.1Q629.5 175.1 631.2 172.8Q632.9 170.5 633.7 166.9L633.7 166.9L643.7 169.3Q642.9 172.7 641.5 175.3Q640.1 178.0 638.0 179.9Q635.8 181.8 632.8 182.8Q629.8 183.8 626.0 183.8ZM651.7 183.0L651.7 174.7L660.3 174.7L660.3 154.1L651.7 154.1L651.7 145.8L671.0 145.8L671.0 156.3L671.5 156.3Q672.0 154.3 672.9 152.4Q673.8 150.5 675.2 149.0Q676.6 147.5 678.6 146.7Q680.6 145.8 683.3 145.8L683.3 145.8L686.9 145.8L686.9 155.6L678.9 155.6Q675.0 155.6 673.0 157.9Q671.0 160.3 671.0 163.7L671.0 163.7L671.0 174.7L683.2 174.7L683.2 183.0L651.7 183.0ZM711.2 183.8L711.2 183.8Q706.9 183.8 703.4 182.5Q700.0 181.2 697.6 178.6Q695.1 176.1 693.8 172.5Q692.6 168.9 692.6 164.4L692.6 164.4Q692.6 159.8 693.8 156.2Q695.1 152.6 697.6 150.1Q700.0 147.6 703.4 146.3Q706.9 144.9 711.2 144.9L711.2 144.9Q715.5 144.9 719.0 146.3Q722.4 147.6 724.8 150.1Q727.3 152.6 728.6 156.2Q729.8 159.8 729.8 164.4L729.8 164.4Q729.8 168.9 728.6 172.5Q727.3 176.1 724.8 178.6Q722.4 181.2 719.0 182.5Q715.5 183.8 711.2 183.8ZM711.2 175.9L711.2 175.9Q714.8 175.9 716.8 173.7Q718.8 171.4 718.8 167.3L718.8 167.3L718.8 161.4Q718.8 157.3 716.8 155.1Q714.8 152.9 711.2 152.9L711.2 152.9Q707.6 152.9 705.6 155.1Q703.6 157.3 703.6 161.4L703.6 161.4L703.6 167.3Q703.6 171.4 705.6 173.7Q707.6 175.9 711.2 175.9ZM748.1 183.0L737.5 183.0L737.5 145.8L748.1 145.8L748.1 152.6L748.6 152.6Q749.2 151.0 750.2 149.6Q751.1 148.2 752.4 147.2Q753.8 146.2 755.5 145.5Q757.3 144.9 759.5 144.9L759.5 144.9Q762.2 144.9 764.4 145.8Q766.6 146.7 768.2 148.5Q769.8 150.3 770.7 152.9Q771.6 155.5 771.6 158.9L771.6 158.9L771.6 183.0L761.0 183.0L761.0 160.3Q761.0 153.1 754.7 153.1L754.7 153.1Q753.5 153.1 752.3 153.5Q751.1 153.8 750.2 154.5Q749.2 155.2 748.7 156.2Q748.1 157.2 748.1 158.5L748.1 158.5L748.1 183.0Z " clip-path="url(#satori_cp-id-1-0-0)" mask="url(#satori_om-id-1-0-0)"/><path fill="black" d="M130.7 520.3L130.7 499.6L132.9 499.6L132.9 508.2L133.0 508.2Q134.4 505.5 137.5 505.5L137.5 505.5Q140.1 505.5 141.6 507.5Q143.1 509.5 143.1 513.0L143.1 513.0Q143.1 516.6 141.6 518.6Q140.1 520.6 137.5 520.6L137.5 520.6Q134.4 520.6 133.0 517.9L133.0 517.9L132.9 517.9L132.9 520.3L130.7 520.3ZM136.6 518.6L136.6 518.6Q138.6 518.6 139.6 517.4Q140.7 516.2 140.7 514.3L140.7 514.3L140.7 511.8Q140.7 509.9 139.6 508.7Q138.6 507.5 136.6 507.5L136.6 507.5Q135.8 507.5 135.2 507.7Q134.5 507.9 134.0 508.2Q133.5 508.6 133.2 509.2Q132.9 509.7 132.9 510.4L132.9 510.4L132.9 515.7Q132.9 516.4 133.2 516.9Q133.5 517.5 134.0 517.8Q134.5 518.2 135.2 518.4Q135.8 518.6 136.6 518.6ZM155.4 511.9L157.9 505.8L160.1 505.8L152.9 523.4Q152.7 524.1 152.4 524.5Q152.1 525.0 151.7 525.3Q151.2 525.6 150.7 525.7Q150.1 525.9 149.3 525.9L149.3 525.9L147.1 525.9L147.1 524.0L150.5 524.0L152.1 520.0L146.3 505.8L148.6 505.8L151.0 511.9L153.2 517.4L153.3 517.4L155.4 511.9Z "/><clipPath id="satori_cp-id-1-0-1-0-2"><rect x="178" y="489" width="201" height="36"/></clipPath><mask id="satori_om-id-1-0-1-0-2"><rect x="178" y="489" width="201" height="36" fill="#fff"/></mask><path fill="black" d="M194.7 520.1L190.2 520.1L188.9 515.4L183.6 515.4L182.4 520.1L178.1 520.1L183.4 500.5L189.4 500.5L194.7 520.1ZM188.3 512.0L186.4 504.6L186.2 504.6L184.3 512.0L188.3 512.0ZM199.0 520.1L195.6 520.1L195.6 505.6L199.0 505.6L199.0 507.8L199.2 507.8Q199.5 506.8 200.1 506.0Q200.8 505.3 201.9 505.3L201.9 505.3Q204.0 505.3 204.5 507.8L204.5 507.8L204.7 507.8Q204.8 507.3 205.1 506.8Q205.3 506.4 205.7 506.0Q206.1 505.7 206.6 505.5Q207.1 505.3 207.7 505.3L207.7 505.3Q210.8 505.3 210.8 509.8L210.8 509.8L210.8 520.1L207.4 520.1L207.4 510.2Q207.4 509.2 207.1 508.8Q206.7 508.4 206.2 508.4L206.2 508.4Q205.6 508.4 205.3 508.7Q204.9 509.1 204.9 509.8L204.9 509.8L204.9 520.1L201.5 520.1L201.5 510.2Q201.5 509.2 201.2 508.8Q200.9 508.4 200.3 508.4L200.3 508.4Q199.8 508.4 199.4 508.7Q199.0 509.1 199.0 509.8L199.0 509.8L199.0 520.1ZM227.6 520.1L225.2 520.1Q223.9 520.1 223.2 519.4Q222.4 518.8 222.2 517.5L222.2 517.5L222.1 517.5Q221.7 519.0 220.5 519.7Q219.4 520.4 217.7 520.4L217.7 520.4Q215.6 520.4 214.3 519.3Q213.1 518.2 213.1 516.1L213.1 516.1Q213.1 513.8 214.7 512.8Q216.4 511.7 219.6 511.7L219.6 511.7L221.9 511.7L221.9 510.9Q221.9 509.6 221.3 509.0Q220.7 508.3 219.2 508.3L219.2 508.3Q217.9 508.3 217.1 508.8Q216.3 509.3 215.7 510.2L215.7 510.2L213.4 508.1Q214.2 506.9 215.7 506.1Q217.3 505.3 219.7 505.3L219.7 505.3Q222.7 505.3 224.4 506.7Q226.0 508.0 226.0 510.8L226.0 510.8L226.0 517.1L227.6 517.1L227.6 520.1ZM219.3 517.7L219.3 517.7Q220.4 517.7 221.1 517.2Q221.9 516.6 221.9 515.6L221.9 515.6L221.9 513.9L219.7 513.9Q217.1 513.9 217.1 515.6L217.1 515.6L217.1 516.2Q217.1 516.9 217.7 517.3Q218.3 517.7 219.3 517.7ZM243.4 520.1L230.2 520.1L230.2 516.6L238.3 508.9L230.5 508.9L230.5 505.6L243.1 505.6L243.1 509.1L235.0 516.9L243.4 516.9L243.4 520.1ZM254.5 503.8L254.5 503.8Q253.1 503.8 252.6 503.2Q252.0 502.6 252.0 501.8L252.0 501.8L252.0 501.0Q252.0 500.2 252.6 499.6Q253.1 499.1 254.5 499.1L254.5 499.1Q255.9 499.1 256.4 499.6Q257.0 500.2 257.0 501.0L257.0 501.0L257.0 501.8Q257.0 502.6 256.4 503.2Q255.9 503.8 254.5 503.8ZM247.8 520.1L247.8 516.9L252.4 516.9L252.4 508.9L247.8 508.9L247.8 505.6L256.6 505.6L256.6 516.9L260.8 516.9L260.8 520.1L247.8 520.1ZM268.0 520.1L263.8 520.1L263.8 505.6L268.0 505.6L268.0 508.3L268.1 508.3Q268.4 507.7 268.7 507.1Q269.1 506.6 269.6 506.2Q270.1 505.8 270.8 505.5Q271.5 505.3 272.4 505.3L272.4 505.3Q273.4 505.3 274.3 505.7Q275.2 506.0 275.8 506.7Q276.4 507.4 276.7 508.4Q277.1 509.4 277.1 510.7L277.1 510.7L277.1 520.1L272.9 520.1L272.9 511.3Q272.9 508.5 270.5 508.5L270.5 508.5Q270.0 508.5 269.6 508.6Q269.1 508.8 268.7 509.0Q268.4 509.3 268.2 509.7Q268.0 510.1 268.0 510.6L268.0 510.6L268.0 520.1ZM295.1 521.5L295.1 521.5Q295.1 523.8 293.2 524.9Q291.3 526.0 287.1 526.0L287.1 526.0Q285.0 526.0 283.7 525.8Q282.4 525.6 281.6 525.1Q280.8 524.7 280.4 524.0Q280.1 523.4 280.1 522.7L280.1 522.7Q280.1 521.5 280.8 520.8Q281.6 520.2 282.9 519.9L282.9 519.9L282.9 519.7Q282.0 519.4 281.4 518.9Q280.9 518.4 280.9 517.4L280.9 517.4Q280.9 516.4 281.6 515.9Q282.3 515.4 283.5 515.1L283.5 515.1L283.5 514.9Q282.2 514.3 281.5 513.2Q280.8 512.1 280.8 510.5L280.8 510.5Q280.8 509.2 281.2 508.2Q281.7 507.3 282.5 506.6Q283.3 506.0 284.5 505.6Q285.6 505.3 287.0 505.3L287.0 505.3Q288.4 505.3 289.6 505.6L289.6 505.6L289.6 504.8Q289.6 504.0 290.2 503.4Q290.8 502.9 291.8 502.9L291.8 502.9L294.3 502.9L294.3 505.9L290.9 505.9L290.9 506.1Q292.0 506.8 292.7 507.8Q293.4 508.9 293.4 510.5L293.4 510.5Q293.4 511.7 292.9 512.7Q292.5 513.6 291.6 514.3Q290.8 514.9 289.6 515.3Q288.5 515.6 287.0 515.6L287.0 515.6Q286.4 515.6 285.8 515.5Q285.2 515.5 284.7 515.3L284.7 515.3Q284.4 515.5 284.2 515.8Q284.0 516.0 284.0 516.4L284.0 516.4Q284.0 516.7 284.1 516.9Q284.3 517.1 284.6 517.2Q284.9 517.3 285.3 517.3Q285.7 517.4 286.1 517.4L286.1 517.4L289.4 517.4Q290.9 517.4 292.0 517.7Q293.1 518.0 293.8 518.6Q294.5 519.1 294.8 519.9Q295.1 520.6 295.1 521.5ZM291.2 521.9L291.2 521.9Q291.2 521.3 290.8 521.0Q290.3 520.7 289.0 520.7L289.0 520.7L284.1 520.7Q283.5 521.1 283.5 521.8L283.5 521.8Q283.5 522.5 284.1 522.9Q284.7 523.4 286.1 523.4L286.1 523.4L288.5 523.4Q289.9 523.4 290.6 523.0Q291.2 522.6 291.2 521.9ZM287.0 513.0L287.0 513.0Q288.3 513.0 288.9 512.4Q289.4 511.7 289.4 510.8L289.4 510.8L289.4 510.1Q289.4 509.2 288.9 508.6Q288.3 507.9 287.0 507.9L287.0 507.9Q285.8 507.9 285.2 508.6Q284.7 509.2 284.7 510.1L284.7 510.1L284.7 510.8Q284.7 511.7 285.2 512.4Q285.8 513.0 287.0 513.0Z M321.2 520.4L321.2 520.4Q317.3 520.4 315.4 517.8Q313.5 515.1 313.5 510.3L313.5 510.3Q313.5 505.5 315.4 502.9Q317.3 500.2 321.2 500.2L321.2 500.2Q322.8 500.2 323.9 500.6Q325.1 501.0 325.9 501.8Q326.8 502.5 327.3 503.5Q327.9 504.6 328.2 505.8L328.2 505.8L324.2 506.8Q324.1 506.1 323.9 505.5Q323.6 504.9 323.3 504.5Q322.9 504.1 322.4 503.8Q321.9 503.6 321.2 503.6L321.2 503.6Q319.5 503.6 318.7 504.9Q318.0 506.3 318.0 508.6L318.0 508.6L318.0 512.0Q318.0 514.4 318.7 515.7Q319.5 517.0 321.2 517.0L321.2 517.0Q322.6 517.0 323.3 516.1Q323.9 515.2 324.2 513.8L324.2 513.8L328.2 514.8Q327.9 516.1 327.3 517.1Q326.8 518.2 325.9 518.9Q325.1 519.6 323.9 520.0Q322.8 520.4 321.2 520.4ZM331.0 520.1L331.0 499.4L335.2 499.4L335.2 508.3L335.3 508.3Q335.6 507.7 335.9 507.1Q336.3 506.6 336.8 506.2Q337.3 505.8 338.0 505.5Q338.7 505.3 339.6 505.3L339.6 505.3Q340.6 505.3 341.5 505.7Q342.4 506.0 343.0 506.7Q343.6 507.4 343.9 508.4Q344.3 509.4 344.3 510.7L344.3 510.7L344.3 520.1L340.1 520.1L340.1 511.3Q340.1 508.5 337.7 508.5L337.7 508.5Q337.2 508.5 336.8 508.6Q336.3 508.8 335.9 509.0Q335.6 509.3 335.4 509.7Q335.2 510.1 335.2 510.6L335.2 510.6L335.2 520.1L331.0 520.1ZM354.8 520.4L354.8 520.4Q351.2 520.4 349.3 518.4Q347.4 516.4 347.4 512.9L347.4 512.9Q347.4 511.2 347.9 509.7Q348.4 508.3 349.3 507.3Q350.2 506.3 351.5 505.8Q352.8 505.3 354.4 505.3L354.4 505.3Q356.1 505.3 357.3 505.8Q358.6 506.3 359.5 507.3Q360.4 508.2 360.9 509.6Q361.4 511.0 361.4 512.6L361.4 512.6L361.4 513.9L351.5 513.9L351.5 514.1Q351.5 515.5 352.4 516.4Q353.3 517.2 354.9 517.2L354.9 517.2Q356.2 517.2 357.1 516.7Q358.1 516.3 358.7 515.4L358.7 515.4L361.0 517.9Q360.1 518.9 358.6 519.7Q357.1 520.4 354.8 520.4ZM354.5 508.3L354.5 508.3Q353.1 508.3 352.3 509.1Q351.5 509.9 351.5 511.3L351.5 511.3L351.5 511.6L357.3 511.6L357.3 511.3Q357.3 509.9 356.6 509.1Q355.8 508.3 354.5 508.3ZM368.8 520.1L364.6 520.1L364.6 505.6L368.8 505.6L368.8 508.3L368.9 508.3Q369.2 507.7 369.5 507.1Q369.9 506.6 370.4 506.2Q370.9 505.8 371.6 505.5Q372.3 505.3 373.2 505.3L373.2 505.3Q374.2 505.3 375.1 505.7Q376.0 506.0 376.6 506.7Q377.2 507.4 377.5 508.4Q377.9 509.4 377.9 510.7L377.9 510.7L377.9 520.1L373.7 520.1L373.7 511.3Q373.7 508.5 371.3 508.5L371.3 508.5Q370.8 508.5 370.4 508.6Q369.9 508.8 369.5 509.0Q369.2 509.3 369.0 509.7Q368.8 510.1 368.8 510.6L368.8 510.6L368.8 520.1Z " clip-path="url(#satori_cp-id-1-0-1-0-2)" mask="url(#satori_om-id-1-0-1-0-2)"/><clipPath id="satori_cp-id-1-0-1-1"><rect x="954" y="489" width="118" height="36"/></clipPath><mask id="satori_om-id-1-0-1-1"><rect x="954" y="489" width="118" height="36" fill="#fff"/></mask><path fill="black" d="M970.7 520.1L966.2 520.1L964.9 515.4L959.6 515.4L958.4 520.1L954.1 520.1L959.4 500.5L965.4 500.5L970.7 520.1ZM964.3 512.0L962.4 504.6L962.2 504.6L960.3 512.0L964.3 512.0ZM975.0 520.1L971.6 520.1L971.6 505.6L975.0 505.6L975.0 507.8L975.2 507.8Q975.5 506.8 976.1 506.0Q976.8 505.3 977.9 505.3L977.9 505.3Q980.0 505.3 980.5 507.8L980.5 507.8L980.7 507.8Q980.8 507.3 981.1 506.8Q981.3 506.4 981.7 506.0Q982.1 505.7 982.6 505.5Q983.1 505.3 983.7 505.3L983.7 505.3Q986.8 505.3 986.8 509.8L986.8 509.8L986.8 520.1L983.4 520.1L983.4 510.2Q983.4 509.2 983.1 508.8Q982.7 508.4 982.2 508.4L982.2 508.4Q981.6 508.4 981.3 508.7Q980.9 509.1 980.9 509.8L980.9 509.8L980.9 520.1L977.5 520.1L977.5 510.2Q977.5 509.2 977.2 508.8Q976.9 508.4 976.3 508.4L976.3 508.4Q975.8 508.4 975.4 508.7Q975.0 509.1 975.0 509.8L975.0 509.8L975.0 520.1ZM1003.6 520.1L1001.2 520.1Q999.9 520.1 999.2 519.4Q998.4 518.8 998.2 517.5L998.2 517.5L998.1 517.5Q997.7 519.0 996.5 519.7Q995.4 520.4 993.7 520.4L993.7 520.4Q991.6 520.4 990.3 519.3Q989.1 518.2 989.1 516.1L989.1 516.1Q989.1 513.8 990.7 512.8Q992.4 511.7 995.6 511.7L995.6 511.7L997.9 511.7L997.9 510.9Q997.9 509.6 997.3 509.0Q996.7 508.3 995.2 508.3L995.2 508.3Q993.9 508.3 993.1 508.8Q992.3 509.3 991.7 510.2L991.7 510.2L989.4 508.1Q990.2 506.9 991.7 506.1Q993.3 505.3 995.7 505.3L995.7 505.3Q998.7 505.3 1000.4 506.7Q1002.0 508.0 1002.0 510.8L1002.0 510.8L1002.0 517.1L1003.6 517.1L1003.6 520.1ZM995.3 517.7L995.3 517.7Q996.4 517.7 997.1 517.2Q997.9 516.6 997.9 515.6L997.9 515.6L997.9 513.9L995.7 513.9Q993.1 513.9 993.1 515.6L993.1 515.6L993.1 516.2Q993.1 516.9 993.7 517.3Q994.3 517.7 995.3 517.7ZM1019.4 520.1L1006.2 520.1L1006.2 516.6L1014.3 508.9L1006.5 508.9L1006.5 505.6L1019.1 505.6L1019.1 509.1L1011.0 516.9L1019.4 516.9L1019.4 520.1ZM1030.5 503.8L1030.5 503.8Q1029.1 503.8 1028.5 503.2Q1028.0 502.6 1028.0 501.8L1028.0 501.8L1028.0 501.0Q1028.0 500.2 1028.5 499.6Q1029.1 499.1 1030.5 499.1L1030.5 499.1Q1031.9 499.1 1032.4 499.6Q1033.0 500.2 1033.0 501.0L1033.0 501.0L1033.0 501.8Q1033.0 502.6 1032.4 503.2Q1031.9 503.8 1030.5 503.8ZM1023.8 520.1L1023.8 516.9L1028.4 516.9L1028.4 508.9L1023.8 508.9L1023.8 505.6L1032.6 505.6L1032.6 516.9L1036.8 516.9L1036.8 520.1L1023.8 520.1ZM1044.0 520.1L1039.8 520.1L1039.8 505.6L1044.0 505.6L1044.0 508.3L1044.1 508.3Q1044.4 507.7 1044.7 507.1Q1045.1 506.6 1045.6 506.2Q1046.1 505.8 1046.8 505.5Q1047.5 505.3 1048.4 505.3L1048.4 505.3Q1049.4 505.3 1050.3 505.7Q1051.2 506.0 1051.8 506.7Q1052.4 507.4 1052.7 508.4Q1053.1 509.4 1053.1 510.7L1053.1 510.7L1053.1 520.1L1048.9 520.1L1048.9 511.3Q1048.9 508.5 1046.5 508.5L1046.5 508.5Q1046.0 508.5 1045.6 508.6Q1045.1 508.8 1044.7 509.0Q1044.4 509.3 1044.2 509.7Q1044.0 510.1 1044.0 510.6L1044.0 510.6L1044.0 520.1ZM1071.1 521.5L1071.1 521.5Q1071.1 523.8 1069.2 524.9Q1067.3 526.0 1063.1 526.0L1063.1 526.0Q1061.0 526.0 1059.7 525.8Q1058.4 525.6 1057.6 525.1Q1056.8 524.7 1056.4 524.0Q1056.1 523.4 1056.1 522.7L1056.1 522.7Q1056.1 521.5 1056.8 520.8Q1057.6 520.2 1058.9 519.9L1058.9 519.9L1058.9 519.7Q1058.0 519.4 1057.4 518.9Q1056.9 518.4 1056.9 517.4L1056.9 517.4Q1056.9 516.4 1057.6 515.9Q1058.3 515.4 1059.5 515.1L1059.5 515.1L1059.5 514.9Q1058.2 514.3 1057.5 513.2Q1056.8 512.1 1056.8 510.5L1056.8 510.5Q1056.8 509.2 1057.2 508.2Q1057.7 507.3 1058.5 506.6Q1059.3 506.0 1060.5 505.6Q1061.6 505.3 1063.0 505.3L1063.0 505.3Q1064.4 505.3 1065.6 505.6L1065.6 505.6L1065.6 504.8Q1065.6 504.0 1066.2 503.4Q1066.8 502.9 1067.8 502.9L1067.8 502.9L1070.3 502.9L1070.3 505.9L1066.9 505.9L1066.9 506.1Q1068.0 506.8 1068.7 507.8Q1069.4 508.9 1069.4 510.5L1069.4 510.5Q1069.4 511.7 1068.9 512.7Q1068.5 513.6 1067.6 514.3Q1066.8 514.9 1065.6 515.3Q1064.5 515.6 1063.0 515.6L1063.0 515.6Q1062.4 515.6 1061.8 515.5Q1061.2 515.5 1060.7 515.3L1060.7 515.3Q1060.4 515.5 1060.2 515.8Q1060.0 516.0 1060.0 516.4L1060.0 516.4Q1060.0 516.7 1060.1 516.9Q1060.3 517.1 1060.6 517.2Q1060.9 517.3 1061.3 517.3Q1061.7 517.4 1062.1 517.4L1062.1 517.4L1065.4 517.4Q1066.9 517.4 1068.0 517.7Q1069.1 518.0 1069.8 518.6Q1070.5 519.1 1070.8 519.9Q1071.1 520.6 1071.1 521.5ZM1067.2 521.9L1067.2 521.9Q1067.2 521.3 1066.8 521.0Q1066.3 520.7 1065.0 520.7L1065.0 520.7L1060.1 520.7Q1059.5 521.1 1059.5 521.8L1059.5 521.8Q1059.5 522.5 1060.1 522.9Q1060.7 523.4 1062.1 523.4L1062.1 523.4L1064.5 523.4Q1065.9 523.4 1066.6 523.0Q1067.2 522.6 1067.2 521.9ZM1063.0 513.0L1063.0 513.0Q1064.3 513.0 1064.9 512.4Q1065.4 511.7 1065.4 510.8L1065.4 510.8L1065.4 510.1Q1065.4 509.2 1064.9 508.6Q1064.3 507.9 1063.0 507.9L1063.0 507.9Q1061.8 507.9 1061.2 508.6Q1060.7 509.2 1060.7 510.1L1060.7 510.1L1060.7 510.8Q1060.7 511.7 1061.2 512.4Q1061.8 513.0 1063.0 513.0Z " clip-path="url(#satori_cp-id-1-0-1-1)" mask="url(#satori_om-id-1-0-1-1)"/></svg>