<?xml version="1.0" standalone="no"?>
<!DOCTYPE svg PUBLIC "-//W3C//DTD SVG 20010904//EN"
 "http://www.w3.org/TR/2001/REC-SVG-20010904/DTD/svg10.dtd">
<svg version="1.0" xmlns="http://www.w3.org/2000/svg"
 width="811.000000pt" height="811.000000pt" viewBox="0 0 811.000000 811.000000"
 preserveAspectRatio="xMidYMid meet">
<metadata>
Created by potrace 1.14, written by Peter Selinger 2001-2017
</metadata>
<g transform="translate(0.000000,811.000000) scale(0.100000,-0.100000)"
fill="#000000" stroke="none">
<path d="M4175 8090 c-196 -16 -369 -126 -469 -300 -46 -79 -106 -250 -106
-299 0 -17 -5 -42 -11 -58 -17 -46 -13 -449 7 -568 9 -55 20 -122 24 -150 30
-192 63 -293 103 -315 27 -14 29 -14 48 9 26 32 25 95 -5 223 -50 214 -69 371
-70 573 -1 194 6 247 45 374 69 221 194 346 387 387 110 23 152 19 375 -32 78
-18 78 -18 99 4 46 46 -10 91 -162 131 -91 23 -160 29 -265 21z"/>
<path d="M4662 7938 c-7 -7 -12 -18 -12 -26 0 -8 47 -61 104 -117 87 -86 110
-115 145 -186 52 -106 76 -202 102 -404 18 -140 20 -193 15 -430 -3 -148 -8
-369 -10 -490 -2 -121 -9 -274 -15 -340 -6 -66 -16 -196 -21 -290 -12 -188
-23 -245 -76 -367 -42 -99 -46 -134 -14 -160 48 -39 98 -7 142 91 68 150 88
341 93 881 2 173 8 335 14 360 6 25 16 122 23 217 10 149 10 197 -5 370 -18
199 -22 230 -59 402 -22 101 -65 213 -104 271 -41 59 -156 170 -210 201 -55
31 -92 37 -112 17z"/>
<path d="M1215 7000 c-11 -5 -34 -9 -51 -9 -83 -2 -280 -95 -339 -161 -11 -12
-32 -28 -47 -36 -41 -21 -140 -151 -191 -252 -72 -140 -97 -247 -97 -415 0
-180 24 -283 110 -463 117 -248 321 -490 605 -716 105 -84 259 -185 294 -193
45 -10 71 9 71 50 0 39 -12 50 -245 230 -328 255 -495 445 -620 709 -74 154
-90 229 -89 396 2 164 27 266 94 384 60 105 178 217 285 273 119 61 171 74
343 83 168 9 196 19 190 69 -5 40 -70 60 -193 60 -55 0 -109 -4 -120 -9z"/>
<path d="M1627 6878 c-53 -66 -61 -86 -46 -114 23 -45 74 -27 136 46 33 40 37
66 14 89 -33 33 -65 27 -104 -21z"/>
<path d="M1824 6807 c-33 -19 -99 -80 -117 -107 -24 -38 -4 -74 44 -78 28 -2
46 6 99 45 38 28 69 60 75 77 8 25 6 31 -18 52 -31 27 -52 29 -83 11z"/>
<path d="M1990 6692 c-20 -7 -30 -22 -30 -51 0 -18 44 -68 179 -200 98 -97
206 -211 239 -253 61 -79 186 -265 237 -353 47 -82 101 -160 138 -198 40 -40
177 -232 253 -352 83 -131 129 -222 185 -365 55 -142 72 -170 99 -170 48 0 51
47 9 167 -64 183 -169 367 -322 566 -34 44 -78 101 -98 127 -20 26 -44 69 -53
96 -9 28 -41 90 -71 139 -30 50 -58 97 -62 105 -14 32 -137 216 -193 289 -70
92 -292 318 -387 393 -69 56 -96 69 -123 60z"/>
<path d="M3768 6353 c-41 -5 -68 -32 -68 -70 0 -36 36 -53 115 -53 58 0 75 4
93 20 28 26 28 64 0 90 -22 20 -48 22 -140 13z"/>
<path d="M3745 6173 c-33 -8 -45 -24 -45 -59 0 -46 25 -57 117 -52 64 3 78 7
94 27 24 30 24 42 -1 69 -17 18 -31 22 -83 21 -34 -1 -71 -4 -82 -6z"/>
<path d="M3725 6001 c-17 -54 66 -475 147 -751 6 -19 11 -50 12 -69 1 -30 -3
-34 -39 -48 -101 -37 -136 -57 -142 -81 -4 -16 1 -30 15 -44 l20 -20 123 31
c67 17 130 37 138 46 33 32 19 141 -53 420 -68 262 -126 457 -152 508 -17 33
-59 38 -69 8z"/>
<path d="M5051 5181 c-36 -45 -38 -76 -5 -98 19 -12 25 -11 51 11 37 31 71 92
58 105 -6 5 -24 12 -41 15 -28 6 -35 3 -63 -33z"/>
<path d="M5165 5133 c-48 -61 -55 -97 -23 -117 24 -14 60 14 112 87 39 55 39
57 20 72 -37 28 -61 18 -109 -42z"/>
<path d="M3557 5122 c-22 -25 -22 -51 5 -150 23 -89 40 -109 84 -98 41 11 48
42 30 136 -9 46 -23 94 -31 107 -19 28 -65 31 -88 5z"/>
<path d="M5280 5100 c-42 -42 -16 -66 120 -107 176 -53 292 -113 398 -205 36
-31 73 -36 96 -12 34 33 17 67 -64 128 -115 88 -245 147 -419 191 -116 30
-106 30 -131 5z"/>
<path d="M3411 5054 c-21 -15 -23 -22 -18 -73 8 -82 28 -133 59 -151 35 -19
59 -6 72 38 6 22 3 47 -14 98 -33 102 -53 120 -99 88z"/>
<path d="M1662 4863 c-29 -25 -92 -124 -92 -145 0 -24 27 -48 55 -48 25 0 44
22 89 102 30 54 32 71 10 92 -20 21 -37 20 -62 -1z"/>
<path d="M1778 4758 c-58 -63 -108 -135 -108 -157 0 -14 9 -25 27 -32 22 -8
30 -6 54 17 l28 27 18 -21 c28 -33 335 -246 436 -303 158 -89 308 -159 342
-159 54 0 85 60 53 102 -7 9 -71 44 -143 76 -155 72 -214 105 -377 210 -149
96 -248 152 -272 152 -17 0 -16 3 3 36 12 19 21 46 21 60 0 37 -43 32 -82 -8z"/>
<path d="M5950 4758 c-38 -26 -48 -51 -30 -73 33 -40 158 21 148 72 -5 29 -75
30 -118 1z"/>
<path d="M6039 4683 c-24 -8 -50 -21 -58 -28 -18 -18 -7 -62 18 -70 25 -8 127
31 135 52 7 17 -1 53 -12 54 -4 0 -14 2 -23 4 -8 1 -35 -4 -60 -12z"/>
<path d="M6152 4598 c-16 -16 -15 -53 1 -66 7 -6 46 -23 87 -38 117 -41 228
-103 291 -161 58 -54 119 -135 119 -159 0 -7 -54 -58 -121 -113 -169 -140
-279 -247 -279 -271 0 -27 41 -27 66 1 25 28 267 245 322 289 36 28 45 32 53
20 16 -26 49 -119 55 -158 l6 -38 -63 -29 c-72 -32 -330 -183 -341 -199 -12
-17 -5 -40 14 -44 9 -2 42 13 73 34 75 47 316 184 325 184 9 0 17 -39 26 -124
l7 -64 -59 -12 c-161 -31 -340 -73 -351 -82 -7 -6 -13 -17 -13 -25 0 -31 22
-28 315 40 l100 24 3 -61 c9 -174 -92 -378 -274 -553 -42 -40 -54 -59 -54 -82
0 -16 5 -33 10 -36 6 -3 10 -18 10 -33 0 -22 59 -86 339 -362 275 -271 355
-357 423 -450 127 -175 158 -226 146 -238 -7 -7 0 -12 22 -17 57 -12 85 35 60
101 -11 28 -100 162 -153 230 -18 22 -51 65 -73 95 -44 57 -291 300 -510 503
-189 174 -179 148 -89 253 175 202 243 355 260 583 3 46 8 87 11 89 9 10 265
40 429 51 94 7 188 15 209 19 40 6 58 25 34 33 -19 7 -362 -10 -443 -22 -128
-18 -230 -26 -236 -18 -10 15 -30 211 -22 218 14 13 121 50 278 97 83 25 160
49 173 54 31 12 29 39 -3 39 -40 0 -207 -47 -318 -90 -165 -63 -148 -67 -189
47 -19 54 -38 105 -42 114 -10 23 11 41 173 151 75 50 139 96 143 102 12 17
-20 28 -44 15 -29 -15 -225 -145 -257 -170 -33 -26 -54 -24 -74 9 -22 36 -111
129 -168 175 -52 42 -170 98 -279 133 -84 27 -111 29 -128 12z"/>
<path d="M2349 4023 c-35 -31 -71 -66 -80 -77 -9 -12 -36 -41 -59 -66 -209
-219 -337 -645 -329 -1091 l3 -150 -35 -47 c-112 -149 -151 -302 -128 -495 10
-86 10 -90 -12 -113 l-22 -24 30 0 c27 0 32 -5 48 -47 10 -27 22 -52 26 -57
17 -18 9 -31 -31 -50 -22 -11 -40 -23 -40 -27 0 -8 78 -33 125 -41 15 -2 20
-11 20 -33 0 -24 4 -30 21 -30 11 -1 50 -24 85 -52 73 -58 156 -105 214 -123
22 -7 44 -16 49 -20 9 -9 -34 -112 -57 -134 -23 -23 -147 -212 -147 -224 0
-40 44 8 146 163 64 96 119 175 123 175 3 0 47 1 96 3 69 1 98 7 119 21 22 14
34 16 51 8 43 -20 148 -24 231 -9 128 23 240 83 344 184 47 46 86 83 86 83 1
0 4 -8 6 -18 5 -18 44 -19 809 -31 555 -9 886 -10 1069 -4 146 6 267 9 269 7
2 -2 -35 -62 -83 -133 l-86 -129 -62 24 c-66 26 -103 30 -113 14 -10 -16 -91
-12 -128 6 -33 16 -36 15 -103 -14 -102 -44 -216 -80 -334 -103 -147 -30 -367
-23 -520 15 -115 29 -107 26 -267 86 -88 33 -116 40 -127 31 -8 -7 -17 -41
-21 -84 -25 -277 -43 -1150 -24 -1173 21 -26 97 -59 239 -107 121 -41 176 -55
385 -99 98 -20 413 -17 510 6 88 20 206 64 274 102 41 23 45 23 75 8 204 -102
557 -146 915 -113 165 15 343 40 363 50 32 17 42 53 50 179 18 265 19 416 4
735 -15 338 -23 400 -55 391 -108 -35 -191 -49 -301 -53 l-125 -5 78 56 c123
89 230 156 382 241 l140 78 109 3 c60 2 125 9 145 14 115 34 160 42 289 50 79
4 180 6 225 3 45 -3 78 -2 74 3 -4 4 -155 11 -335 14 l-327 5 32 20 c18 11 69
40 113 64 79 44 100 71 64 85 -9 4 -93 -33 -207 -90 -184 -93 -238 -121 -427
-222 -47 -25 -159 -94 -250 -153 -318 -206 -423 -254 -552 -254 -57 0 -71 4
-90 22 -21 21 -21 26 -9 70 17 66 168 290 260 386 97 101 233 201 516 377 261
163 300 191 320 230 14 27 13 29 -5 35 -49 15 -200 -56 -460 -218 -164 -102
-303 -206 -404 -301 -38 -36 -72 -63 -77 -60 -5 3 -111 0 -236 -6 -155 -8
-508 -9 -1099 -4 l-871 7 0 23 c0 30 -20 54 -45 54 -10 0 -57 -36 -103 -80
-162 -152 -268 -205 -433 -217 -45 -3 -90 -12 -99 -19 -15 -10 -21 -8 -40 12
-18 20 -32 24 -78 24 -30 0 -55 4 -55 9 0 6 31 56 69 113 82 124 94 145 86
158 -22 36 -70 -21 -193 -230 -13 -22 -29 -40 -37 -40 -57 0 -231 82 -280 132
-17 17 -18 21 -5 29 82 51 157 93 275 154 105 55 141 78 143 94 3 15 -2 21
-17 21 -26 0 -266 -123 -367 -188 -72 -46 -80 -49 -96 -36 -20 19 -88 154 -88
176 0 11 18 19 63 27 34 7 94 19 132 26 39 7 115 19 170 25 127 15 127 15 123
42 -3 21 -8 23 -53 20 -67 -4 -272 -38 -368 -61 l-78 -18 -12 21 c-7 13 -11
64 -11 136 1 143 19 203 96 321 l56 84 1 170 c5 574 117 881 444 1219 21 22
37 48 37 62 0 21 -5 24 -34 24 -27 0 -46 -12 -97 -57z m2546 -2630 c-4 -10 -9
-279 -12 -598 l-4 -580 -47 -22 c-297 -138 -738 -109 -1207 80 l-60 24 2 54
c1 30 6 158 12 284 6 127 14 350 18 498 3 147 7 267 9 267 1 0 42 -15 90 -34
201 -78 445 -123 608 -112 172 11 363 59 520 131 64 29 81 31 71 8z m100 -568
c0 -483 -2 -584 -13 -580 -8 3 -23 5 -34 5 -21 0 -21 2 -15 192 4 106 7 367 7
581 l0 387 28 0 27 0 0 -585z m150 563 c44 -22 45 -23 45 -70 0 -52 16 -92 48
-121 23 -21 112 -47 162 -47 58 0 171 35 258 79 l83 41 87 -10 c102 -11 232 5
344 44 45 16 68 20 69 12 0 -6 2 -22 4 -36 9 -87 16 -633 10 -850 -7 -258 -7
-258 -30 -264 -47 -12 -346 -36 -500 -40 -241 -6 -447 15 -587 60 l-46 15 -6
562 c-3 309 -8 581 -12 605 -7 50 2 53 71 20z"/>
<path d="M4509 957 c-46 -68 -61 -82 -85 -85 -57 -5 -245 -34 -274 -42 -27 -8
-30 -6 -30 16 0 16 -6 24 -17 24 -42 -1 -46 -13 -40 -111 4 -52 7 -95 7 -96 0
-2 14 -3 30 -3 29 0 30 1 30 50 0 48 1 49 38 59 123 33 330 55 383 41 47 -13
63 -39 54 -91 -4 -21 -3 -39 2 -39 4 0 18 -3 29 -6 17 -5 24 1 33 27 6 17 11
49 11 70 0 46 -40 84 -100 94 -22 4 -40 10 -40 14 0 3 13 22 28 41 15 19 35
47 45 62 16 25 15 27 -8 42 -13 9 -28 16 -32 16 -4 0 -33 -37 -64 -83z"/>
<path d="M4325 1016 c-19 -14 -19 -15 4 -58 33 -59 35 -61 64 -47 l26 12 -29
51 c-34 58 -39 61 -65 42z"/>
<path d="M4169 977 c-15 -11 -13 -17 13 -64 27 -49 31 -51 54 -41 30 14 30 17
-3 73 -29 47 -38 52 -64 32z"/>
<path d="M4315 723 c-70 -10 -105 -24 -105 -41 0 -32 15 -44 42 -33 47 18 190
33 201 22 15 -15 -17 -48 -75 -77 -27 -13 -48 -30 -48 -38 0 -13 -114 -26
-227 -26 -42 0 -43 -1 -43 -31 l0 -32 83 6 c45 4 116 10 158 13 74 7 76 6 82
-17 21 -78 0 -97 -85 -76 -34 9 -66 14 -70 11 -8 -5 -12 -54 -4 -54 2 0 32 -7
65 -15 85 -22 136 -8 158 43 10 23 13 51 9 78 l-5 42 124 7 125 7 0 30 0 31
-72 -7 c-40 -4 -102 -9 -138 -12 l-65 -6 35 29 c59 48 70 62 70 91 0 50 -12
57 -102 58 -46 1 -96 0 -113 -3z"/>
<path d="M5590 993 c-59 -6 -213 -32 -252 -43 -33 -10 -38 -15 -38 -42 0 -35
-5 -35 135 -3 39 8 120 18 182 22 95 5 116 3 137 -11 54 -35 69 -98 56 -236
-14 -148 -31 -227 -53 -251 -17 -18 -29 -21 -88 -17 -64 3 -68 2 -72 -20 -6
-30 23 -42 104 -42 70 0 113 19 133 58 21 42 36 144 43 292 7 161 -2 205 -52
249 -53 46 -110 57 -235 44z"/>
<path d="M5371 813 c-17 -37 -15 -40 41 -59 29 -9 76 -27 104 -40 l52 -23 11
31 c6 17 10 32 9 32 -2 1 -49 20 -104 42 l-102 42 -11 -25z"/>
<path d="M5585 633 c-22 -15 -99 -61 -172 -103 l-132 -77 16 -24 c9 -13 17
-25 19 -27 1 -3 222 124 331 190 32 19 32 20 17 44 -20 30 -29 29 -79 -3z"/>
<path d="M4935 3966 c-82 -41 -106 -97 -63 -151 21 -27 21 -27 132 -24 119 4
150 15 181 63 40 60 -26 115 -148 122 -51 3 -81 0 -102 -10z"/>
<path d="M3038 3153 c-20 -16 -50 -52 -68 -81 -27 -45 -32 -63 -31 -114 0 -33
6 -67 12 -74 23 -28 103 -10 149 35 31 29 80 135 80 172 0 84 -73 115 -142 62z"/>
<path d="M4203 3009 c-7 -7 -13 -28 -13 -45 0 -53 -17 -82 -57 -101 -29 -14
-38 -24 -38 -43 0 -21 5 -25 35 -28 21 -1 47 5 66 17 31 19 64 74 64 108 0 16
9 18 93 18 108 1 140 13 135 53 -3 23 -7 27 -33 24 -71 -6 -173 -6 -205 2 -24
5 -39 4 -47 -5z"/>
<path d="M2498 2583 c-28 -4 -41 -22 -29 -41 4 -6 56 -16 117 -21 247 -22 374
-119 473 -362 39 -97 62 -119 87 -84 27 37 -74 247 -168 350 -65 71 -158 124
-253 143 -62 13 -191 22 -227 15z"/>
<path d="M1580 1934 l-25 -15 35 6 c39 6 66 25 35 25 -11 -1 -31 -8 -45 -16z"/>
</g>
</svg>
