<?xml version="1.0" standalone="no"?>
<!DOCTYPE svg PUBLIC "-//W3C//DTD SVG 20010904//EN"
 "http://www.w3.org/TR/2001/REC-SVG-20010904/DTD/svg10.dtd">
<svg version="1.0" xmlns="http://www.w3.org/2000/svg"
 width="512.000000pt" height="512.000000pt" viewBox="0 0 512.000000 512.000000"
 preserveAspectRatio="xMidYMid meet">
<metadata>
Created by potrace 1.14, written by Peter Selinger 2001-2017
</metadata>
<g transform="translate(0.000000,512.000000) scale(0.100000,-0.100000)"
fill="#000000" stroke="none">
<path d="M2700 4963 c-112 -38 -256 -163 -405 -353 -68 -85 -77 -113 -50 -153
13 -21 12 -26 -15 -67 -17 -25 -30 -49 -30 -53 0 -23 -44 -68 -61 -64 -9 3
-31 -3 -47 -13 -48 -29 -133 -265 -148 -410 -4 -36 -8 -72 -10 -80 -1 -8 -3
-18 -3 -22 -1 -4 -21 -16 -46 -27 -117 -52 -257 -165 -341 -276 -64 -85 -133
-238 -149 -335 -18 -103 -21 -132 -20 -196 3 -105 14 -170 47 -264 16 -47 31
-92 34 -100 3 -11 -27 -30 -106 -68 -61 -30 -129 -66 -152 -80 -257 -164 -411
-305 -543 -497 -63 -92 -138 -249 -168 -354 l-24 -84 -99 -1 c-86 -2 -107 -6
-156 -30 -75 -37 -134 -97 -172 -176 -28 -59 -31 -74 -30 -155 0 -76 5 -99 27
-146 47 -98 151 -183 249 -205 42 -9 156 -6 176 5 34 18 59 13 66 -12 8 -35
92 -182 136 -241 145 -192 357 -326 561 -353 30 -4 454 -7 944 -7 730 -1 896
2 923 13 18 7 46 31 64 53 30 38 31 43 33 145 2 109 -7 184 -30 236 -6 15 4
30 48 70 30 29 115 108 188 177 73 69 147 139 166 157 19 17 95 89 170 160 75
70 144 135 154 144 10 9 82 76 160 150 l141 134 -5 45 -5 45 71 67 c45 41 76
63 82 57 14 -14 48 -11 73 6 49 35 142 229 158 331 3 20 8 46 10 58 2 11 5 52
5 89 1 43 5 70 12 72 16 4 188 46 207 50 71 15 178 75 236 132 58 58 87 120
90 196 4 81 -20 142 -76 198 -86 86 -178 119 -365 134 -22 2 -41 4 -43 4 -3 1
50 73 59 81 13 10 67 107 78 142 55 168 -33 371 -194 444 -64 30 -92 36 -160
36 -68 1 -99 -7 -164 -38 -93 -46 -162 -136 -220 -287 l-11 -29 -40 60 c-97
145 -224 233 -342 237 -182 8 -303 -142 -291 -359 3 -66 37 -218 67 -302 l14
-41 -34 -18 c-31 -16 -47 -15 -50 3 -3 20 -32 87 -71 161 -58 111 -103 175
-190 270 -18 19 -33 38 -33 41 0 3 26 18 58 35 65 34 193 118 236 155 134 114
182 163 270 275 235 298 287 554 126 622 -35 14 -169 21 -206 9 -11 -3 -35 -8
-54 -11 -111 -18 -311 -89 -499 -176 -57 -27 -106 -49 -108 -49 -3 0 -3 10 0
23 5 20 8 41 23 164 6 59 6 218 -1 282 -15 141 -86 201 -195 164z m205 -2892
c-3 -10 -12 -47 -19 -82 -31 -144 -38 -169 -45 -173 -8 -6 -79 30 -152 77 -56
36 -169 133 -169 146 0 3 37 7 83 9 45 2 127 12 182 22 131 23 127 23 120 1z
m-355 -841 c19 -6 50 -13 69 -16 19 -3 44 -10 57 -14 l22 -9 -24 -103 c-44
-182 -32 -163 -101 -164 l-61 -2 3 96 c1 54 -4 121 -11 152 -19 80 -20 79 46
60z"/>
</g>
</svg>
